<?xml version="1.0" encoding="UTF-8"?>
<svg version="1.1" xmlns="http://www.w3.org/2000/svg" width="374" height="374">
<path d="M0 0 C0.80666107 0.00304138 1.61332214 0.00608276 2.44442749 0.00921631 C14.8627522 0.07830509 26.75264097 0.70980693 38.6875 4.4375 C39.37956543 4.65180664 40.07163086 4.86611328 40.78466797 5.08691406 C45.53555979 6.61458206 50.12396978 8.42167219 54.6875 10.4375 C55.66879883 10.8703833 55.66879883 10.8703833 56.66992188 11.31201172 C72.56641708 18.48094334 86.27437269 28.23347591 98.6875 40.4375 C99.62207031 41.32695313 100.55664062 42.21640625 101.51953125 43.1328125 C103.6875 45.4375 103.6875 45.4375 103.6875 47.4375 C104.6775 47.7675 105.6675 48.0975 106.6875 48.4375 C108.00268555 49.87353516 108.00268555 49.87353516 109.32421875 51.7265625 C109.81510986 52.41282715 110.30600098 53.0990918 110.81176758 53.80615234 C111.32763428 54.55074707 111.84350098 55.2953418 112.375 56.0625 C112.90955811 56.83158691 113.44411621 57.60067383 113.99487305 58.39306641 C136.03657753 90.62802264 142.80954541 128.25994176 135.6875 166.4375 C131.90612973 185.71908172 123.92293218 203.96395722 111.6875 219.4375 C111.0275 219.4375 110.3675 219.4375 109.6875 219.4375 C109.378125 220.05625 109.06875 220.675 108.75 221.3125 C108.0625 222.6875 107.375 224.0625 106.6875 225.4375 C106.0275 225.4375 105.3675 225.4375 104.6875 225.4375 C104.45675781 225.99179687 104.22601563 226.54609375 103.98828125 227.1171875 C92.44991322 247.69914128 61.24864476 262.89025237 39.7734375 269.59765625 C1.96444835 279.88744444 -37.42542405 274.75714118 -71.3125 255.4375 C-74.18644337 253.70520675 -77.00998389 251.90787172 -79.8125 250.0625 C-80.46613525 249.63356445 -81.11977051 249.20462891 -81.79321289 248.76269531 C-83.34007366 247.71145922 -84.83277771 246.58130832 -86.3125 245.4375 C-86.3125 244.7775 -86.3125 244.1175 -86.3125 243.4375 C-86.93125 243.128125 -87.55 242.81875 -88.1875 242.5 C-89.5625 241.8125 -90.9375 241.125 -92.3125 240.4375 C-92.3125 239.7775 -92.3125 239.1175 -92.3125 238.4375 C-92.84875 238.23125 -93.385 238.025 -93.9375 237.8125 C-97.23228009 235.90499574 -99.90613628 233.38930616 -102.3125 230.4375 C-102.3125 229.7775 -102.3125 229.1175 -102.3125 228.4375 C-102.9725 228.4375 -103.6325 228.4375 -104.3125 228.4375 C-107.3125 224.97596154 -107.3125 224.97596154 -107.3125 222.4375 C-107.9725 222.4375 -108.6325 222.4375 -109.3125 222.4375 C-110.95649803 220.28319031 -112.45972972 218.14050733 -113.9375 215.875 C-114.3819043 215.19679199 -114.82630859 214.51858398 -115.28417969 213.81982422 C-135.6665386 182.25415958 -142.72815422 145.54337406 -135.38671875 108.46875 C-134.50638297 104.41254671 -133.45210337 100.42834631 -132.3125 96.4375 C-132.07660156 95.58542969 -131.84070313 94.73335938 -131.59765625 93.85546875 C-126.85232009 78.27167247 -118.29473975 64.14675972 -108.3125 51.4375 C-107.55839844 50.45394531 -106.80429688 49.47039062 -106.02734375 48.45703125 C-101.95954754 43.22278894 -101.95954754 43.22278894 -100.3125 41.4375 C-99.6525 41.4375 -98.9925 41.4375 -98.3125 41.4375 C-97.9825 40.4475 -97.6525 39.4575 -97.3125 38.4375 C-96.6525 38.4375 -95.9925 38.4375 -95.3125 38.4375 C-94.9825 37.4475 -94.6525 36.4575 -94.3125 35.4375 C-90.86805556 32.4375 -90.86805556 32.4375 -88.3125 32.4375 C-88.3125 31.7775 -88.3125 31.1175 -88.3125 30.4375 C-82.90073529 26.4375 -82.90073529 26.4375 -80.3125 26.4375 C-80.3125 25.7775 -80.3125 25.1175 -80.3125 24.4375 C-77.90617226 22.77987602 -75.52081894 21.27939387 -73 19.8125 C-72.24396484 19.370271 -71.48792969 18.92804199 -70.70898438 18.47241211 C-62.25945477 13.65683765 -53.40137339 9.87021627 -44.3125 6.4375 C-43.66410156 6.17952637 -43.01570313 5.92155273 -42.34765625 5.65576172 C-28.75083313 0.62219692 -14.33919249 -0.11539478 0 0 Z M-33.3125 30.4375 C-34.55773437 30.81132813 -35.80296875 31.18515625 -37.0859375 31.5703125 C-45.14959899 34.2115552 -52.18316031 37.87172865 -59.3125 42.4375 C-59.8684082 42.788125 -60.42431641 43.13875 -60.99707031 43.5 C-66.26491651 46.81015001 -66.26491651 46.81015001 -71.3125 50.4375 C-71.3125 51.0975 -71.3125 51.7575 -71.3125 52.4375 C-71.84875 52.664375 -72.385 52.89125 -72.9375 53.125 C-78.61499121 56.26256093 -82.22743454 60.34459739 -85.91796875 65.5703125 C-87.3125 67.4375 -87.3125 67.4375 -88.71484375 68.76953125 C-106.33900397 87.16932688 -112.67549366 115.05920668 -112.61987305 139.64086914 C-112.1820439 159.65375905 -106.73243761 181.58149896 -94.3125 197.4375 C-89.05243651 195.8904225 -84.43697845 193.56998676 -79.625 191 C-78.86638672 190.60490234 -78.10777344 190.20980469 -77.32617188 189.80273438 C-76.59591797 189.41537109 -75.86566406 189.02800781 -75.11328125 188.62890625 C-74.45497314 188.28029541 -73.79666504 187.93168457 -73.1184082 187.57250977 C-71.23031949 186.38584971 -69.82370792 185.06911358 -68.3125 183.4375 C-69.3025 183.1075 -70.2925 182.7775 -71.3125 182.4375 C-71.1875 180.125 -71.1875 180.125 -70.3125 177.4375 C-65.63552376 174.12939485 -61.82135021 174.07024332 -56.3125 174.4375 C-55.6525 174.7675 -54.9925 175.0975 -54.3125 175.4375 C-54.3125 177.0875 -54.3125 178.7375 -54.3125 180.4375 C-57.38867188 180.73046875 -57.38867188 180.73046875 -60.46484375 181.0234375 C-61.07457031 181.16007813 -61.68429688 181.29671875 -62.3125 181.4375 C-63.6106424 183.6611068 -63.6106424 183.6611068 -63.3125 187.4375 C-63.94414063 187.7778125 -64.57578125 188.118125 -65.2265625 188.46875 C-67.13343952 189.50187069 -69.03678044 190.5415317 -70.9375 191.5859375 C-72.68517323 192.54473045 -74.43361211 193.50227357 -76.19140625 194.44238281 C-78.11353337 195.47042959 -80.02581436 196.51519015 -81.9375 197.5625 C-82.55318848 197.88669922 -83.16887695 198.21089844 -83.80322266 198.54492188 C-86.23667024 199.89478366 -88.02839636 200.94864581 -89.4453125 203.38671875 C-89.07368975 209.12501125 -81.63268822 214.26060283 -77.61328125 217.84375 C-71.75613803 222.72331012 -65.66668607 227.22848715 -59.3125 231.4375 C-58.55839844 231.95054687 -57.80429688 232.46359375 -57.02734375 232.9921875 C-49.6217508 237.764406 -41.59418332 240.58642869 -33.3125 243.4375 C-31.96478516 243.91896484 -31.96478516 243.91896484 -30.58984375 244.41015625 C-9.21079672 251.5127111 15.73676989 249.79996373 36.6875 242.4375 C37.72261719 242.10105469 38.75773438 241.76460937 39.82421875 241.41796875 C50.4423418 237.72186934 59.39359446 231.63343703 68.6875 225.4375 C68.6875 224.7775 68.6875 224.1175 68.6875 223.4375 C69.39519531 223.21707031 70.10289062 222.99664062 70.83203125 222.76953125 C74.33298429 221.13639174 76.71875959 218.85573887 79.375 216.125 C79.89392822 215.5980957 80.41285645 215.07119141 80.94750977 214.52832031 C86.39031562 208.88860636 91.12587768 202.80020567 95.6875 196.4375 C96.20054687 195.73109375 96.71359375 195.0246875 97.2421875 194.296875 C101.15753847 188.50896487 103.35183174 181.9822371 105.6875 175.4375 C105.97625 174.67566406 106.265 173.91382813 106.5625 173.12890625 C109.11054201 166.10851966 110.37051503 158.76680768 111.6875 151.4375 C111.89052734 150.32375 111.89052734 150.32375 112.09765625 149.1875 C116.12499544 122.86798754 107.17144339 95.33102199 93.16796875 73.31640625 C92.67941406 72.69636719 92.19085938 72.07632813 91.6875 71.4375 C91.0275 71.4375 90.3675 71.4375 89.6875 71.4375 C89.419375 70.839375 89.15125 70.24125 88.875 69.625 C87.70256533 67.46525192 86.49380718 66.07959744 84.6875 64.4375 C80.64908508 65.78363831 79.16282779 68.41509234 77.03125 71.87890625 C75.34428205 73.83559291 74.2317255 74.1715356 71.6875 74.4375 C68.61208518 72.6801201 67.82768002 71.85804006 66.6875 68.4375 C67.326875 68.210625 67.96625 67.98375 68.625 67.75 C72.82070261 65.95184174 76.72650556 63.69845979 80.6875 61.4375 C79.27431481 58.1328208 77.61470475 56.24241413 74.875 53.9375 C74.20855469 53.3703125 73.54210937 52.803125 72.85546875 52.21875 C72.14003906 51.6309375 71.42460937 51.043125 70.6875 50.4375 C69.88699219 49.7775 69.08648437 49.1175 68.26171875 48.4375 C63.95828883 45.09401575 59.31804094 42.30147619 54.6875 39.4375 C54.04296875 39.03015625 53.3984375 38.6228125 52.734375 38.203125 C48.95974625 35.91012623 45.17396939 34.45280509 40.984375 33.15234375 C39.5257672 32.69838928 38.07586842 32.21455795 36.640625 31.69140625 C34.34201091 30.85751054 32.03175361 30.13328303 29.6875 29.4375 C28.74777344 29.15519531 27.80804688 28.87289062 26.83984375 28.58203125 C7.68128228 23.80919664 -14.49674129 24.48904199 -33.3125 30.4375 Z " fill="#9731C2" transform="translate(187.3125,50.5625)"/>
<path d="M0 0 C1.9375 0.75 1.9375 0.75 3.9375 1.75 C3.9375 4.06 3.9375 6.37 3.9375 8.75 C7.8975 9.08 11.8575 9.41 15.9375 9.75 C16.2675 8.1 16.5975 6.45 16.9375 4.75 C19.9375 2.75 19.9375 2.75 22 3.0625 C23.9375 3.75 23.9375 3.75 25.9375 4.75 C25.6075 7.72 25.2775 10.69 24.9375 13.75 C26.2575 14.08 27.5775 14.41 28.9375 14.75 C35.09939624 17.4335729 40.59690378 20.68650287 45.9375 24.75 C46.2675 24.09 46.5975 23.43 46.9375 22.75 C48.5875 23.08 50.2375 23.41 51.9375 23.75 C52.1540625 24.86375 52.1540625 24.86375 52.375 26 C52.560625 26.9075 52.74625 27.815 52.9375 28.75 C53.02 29.389375 53.1025 30.02875 53.1875 30.6875 C53.99570976 32.91007684 54.96776146 34.09242389 56.5 35.875 C58.9375 38.75 58.9375 38.75 58.9375 40.75 C59.5975 40.75 60.2575 40.75 60.9375 40.75 C64.09782456 46.34532872 67.10555143 51.98121589 69.9375 57.75 C73.01238825 57.29781055 75.20582323 56.61310039 78 55.1875 C80.9375 53.75 80.9375 53.75 84.9375 53.75 C85.2675 57.05 85.5975 60.35 85.9375 63.75 C83.9575 65.07 81.9775 66.39 79.9375 67.75 C80.5975 68.41 81.2575 69.07 81.9375 69.75 C81.38194444 74.30555556 81.38194444 74.30555556 79.9375 75.75 C77.60452567 75.79092937 75.27044775 75.79241723 72.9375 75.75 C72.9375 78.72 72.9375 81.69 72.9375 84.75 C73.72125 84.688125 74.505 84.62625 75.3125 84.5625 C76.611875 84.6553125 76.611875 84.6553125 77.9375 84.75 C79.9375 87.75 79.9375 87.75 79.5625 90.9375 C79.35625 91.865625 79.15 92.79375 78.9375 93.75 C76.6275 93.75 74.3175 93.75 71.9375 93.75 C71.2775 95.73 70.6175 97.71 69.9375 99.75 C74.8875 100.08 79.8375 100.41 84.9375 100.75 C85.2675 103.06 85.5975 105.37 85.9375 107.75 C85.6075 108.08 85.2775 108.41 84.9375 108.75 C82.80823973 108.73098875 80.67898203 108.71081343 78.54980469 108.68408203 C70.2956695 108.59292318 70.2956695 108.59292318 62.921875 111.79296875 C60.71582504 114.34226775 58.81598213 116.95305647 56.9375 119.75 C52.68701819 124.49887902 47.94125762 128.44424771 42.85546875 132.26953125 C40.84987452 133.75250418 40.84987452 133.75250418 38.9375 135.75 C40.5875 135.75 42.2375 135.75 43.9375 135.75 C43.38826653 139.45732591 42.08934361 140.77702542 39.1875 143.0625 C35.37817846 146.25169943 32.46413216 149.47347418 29.9375 153.75 C29.19113281 155.00876953 29.19113281 155.00876953 28.4296875 156.29296875 C26.43064645 160.92425494 25.6988257 165.54348488 24.875 170.5 C24.55799454 172.39184783 24.23410654 174.28255921 23.90234375 176.171875 C23.7643335 177.00299805 23.62632324 177.83412109 23.48413086 178.69042969 C22.9375 180.75 22.9375 180.75 20.9375 182.75 C19.2875 182.42 17.6375 182.09 15.9375 181.75 C15.2775 185.05 14.6175 188.35 13.9375 191.75 C11.9460944 192.13133299 9.94470923 192.46325582 7.9375 192.75 C7.6075 192.42 7.2775 192.09 6.9375 191.75 C6.94976072 189.25187824 7.03602182 186.80353537 7.1875 184.3125 C7.25529663 183.17482178 7.25529663 183.17482178 7.32446289 182.01416016 C7.86196255 174.2136062 9.19705136 166.602658 10.56445312 158.91357422 C14.33066878 137.77795559 14.33066878 137.77795559 7.9375 117.75 C2.35488455 115.49548222 -1.63553952 115.57504212 -7.25 117.5 C-11.00060337 120.08662301 -12.22444206 123.73481286 -13.3125 128 C-15.79052333 141.89758086 -12.38955226 157.16164481 -10.265625 170.921875 C-10.12882324 171.81479248 -9.99202148 172.70770996 -9.85107422 173.62768555 C-9.58155888 175.37730786 -9.30737319 177.1262191 -9.02783203 178.87426758 C-8.35349593 183.21492653 -7.90525912 187.34010804 -8.0625 191.75 C-12.8125 192.875 -12.8125 192.875 -15.0625 191.75 C-15.7225 190.76 -16.3825 189.77 -17.0625 188.75 C-20.14615871 188.4997843 -20.14615871 188.4997843 -23.0625 188.75 C-24.7083759 184.14154748 -25.18770009 180.08484168 -25.375 175.1875 C-26.33802562 160.77268798 -31.71329725 151.29818086 -42.0625 141.75 C-43.0525 141.09 -44.0425 140.43 -45.0625 139.75 C-45.0625 138.43 -45.0625 137.11 -45.0625 135.75 C-43.7425 135.75 -42.4225 135.75 -41.0625 135.75 C-41.7225 135.13125 -42.3825 134.5125 -43.0625 133.875 C-45.0625 131.75 -45.0625 131.75 -45.0625 129.75 C-46.0525 129.75 -47.0425 129.75 -48.0625 129.75 C-50.4375 127.5625 -50.4375 127.5625 -53.0625 124.75 C-53.825625 123.986875 -54.58875 123.22375 -55.375 122.4375 C-56.7053125 121.1071875 -56.7053125 121.1071875 -58.0625 119.75 C-58.74183594 119.08226562 -59.42117187 118.41453125 -60.12109375 117.7265625 C-60.84425781 117.01242188 -61.56742188 116.29828125 -62.3125 115.5625 C-62.99828125 114.88832031 -63.6840625 114.21414062 -64.390625 113.51953125 C-66.0625 111.75 -66.0625 111.75 -67.0625 109.75 C-69.64855332 109.2816735 -69.64855332 109.2816735 -72.625 109.125 C-73.63691406 109.05023438 -74.64882812 108.97546875 -75.69140625 108.8984375 C-76.86509766 108.82496094 -76.86509766 108.82496094 -78.0625 108.75 C-79.1875 106.4375 -79.1875 106.4375 -80.0625 103.75 C-78.0625 100.75 -78.0625 100.75 -74.9375 100.0625 C-73.98875 99.959375 -73.04 99.85625 -72.0625 99.75 C-72.5575 97.275 -72.5575 97.275 -73.0625 94.75 C-74.7640625 94.2859375 -74.7640625 94.2859375 -76.5 93.8125 C-80.0625 92.75 -80.0625 92.75 -81.0625 91.75 C-81.25 89.3125 -81.25 89.3125 -81.0625 86.75 C-80.0725 85.76 -80.0725 85.76 -79.0625 84.75 C-77.7425 84.75 -76.4225 84.75 -75.0625 84.75 C-75.0625 81.78 -75.0625 78.81 -75.0625 75.75 C-76.7125 75.42 -78.3625 75.09 -80.0625 74.75 C-80.6875 72.9375 -80.6875 72.9375 -81.0625 70.75 C-79.0625 67.75 -79.0625 67.75 -75.9375 67.0625 C-74.98875 66.959375 -74.04 66.85625 -73.0625 66.75 C-72.7325 65.1 -72.4025 63.45 -72.0625 61.75 C-72.89394531 61.76160156 -73.72539063 61.77320313 -74.58203125 61.78515625 C-75.66871094 61.79417969 -76.75539063 61.80320313 -77.875 61.8125 C-78.95394531 61.82410156 -80.03289062 61.83570313 -81.14453125 61.84765625 C-84.0625 61.75 -84.0625 61.75 -87.0625 60.75 C-87.1875 58.375 -87.1875 58.375 -87.0625 55.75 C-84.23028292 52.91778292 -82.07264994 53.37897528 -78.125 53.1875 C-73.00364435 52.95155421 -73.00364435 52.95155421 -68.0625 51.75 C-66.99175408 49.78696582 -65.99954257 47.7802589 -65.0625 45.75 C-63.5 42.875 -63.5 42.875 -62.0625 40.75 C-61.4025 40.75 -60.7425 40.75 -60.0625 40.75 C-60.0625 39.76 -60.0625 38.77 -60.0625 37.75 C-58.4170622 36.06237149 -56.74961423 34.3959651 -55.0625 32.75 C-53.99703047 29.5535914 -53.98822162 27.09252724 -54.0625 23.75 C-51.75 23.125 -51.75 23.125 -49.0625 22.75 C-48.0725 23.41 -47.0825 24.07 -46.0625 24.75 C-46.63594937 21.88275314 -46.9239515 20.8885485 -49.0625 18.75 C-49.3125 16.25 -49.3125 16.25 -49.0625 13.75 C-48.4025 13.09 -47.7425 12.43 -47.0625 11.75 C-42.11468502 11.8874393 -39.5616712 14.5763331 -36.0625 17.75 C-34.969375 17.09 -33.87625 16.43 -32.75 15.75 C-30.12542462 14.16535071 -29.2368622 13.75 -26.0625 13.75 C-26.5575 12.76 -26.5575 12.76 -27.0625 11.75 C-27.10272391 9.4170134 -27.10570247 7.08293334 -27.0625 4.75 C-23.5975 4.255 -23.5975 4.255 -20.0625 3.75 C-19.0725 5.73 -18.0825 7.71 -17.0625 9.75 C-13.1025 9.42 -9.1425 9.09 -5.0625 8.75 C-5.0625 6.77 -5.0625 4.79 -5.0625 2.75 C-3.49544963 0.32107193 -2.91636076 -0.35349827 0 0 Z M-59.06640625 68.35546875 C-61.38356071 73.92572633 -61.02570057 80.41416978 -59.37109375 86.14453125 C-58.53229786 88.23225332 -58.53229786 88.23225332 -57.0625 90.75 C-56.4025 90.75 -55.7425 90.75 -55.0625 90.75 C-54.876875 91.306875 -54.69125 91.86375 -54.5 92.4375 C-51.37580602 97.46337728 -45.39459341 100.52090632 -40.0625 102.75 C-37.25903088 103.185931 -34.52076951 103.22605002 -31.6875 103.1875 C-30.93597656 103.18210205 -30.18445313 103.1767041 -29.41015625 103.17114258 C-23.70829921 103.01434151 -19.75996052 102.17523163 -15.0625 98.75 C-14.7325 97.76 -14.4025 96.77 -14.0625 95.75 C-15.2220561 93.94919303 -15.2220561 93.94919303 -17 92.1875 C-19.8253188 89.12017182 -22.52299475 86.01004132 -25.125 82.75 C-25.79789063 81.90953125 -26.47078125 81.0690625 -27.1640625 80.203125 C-28.85829035 78.01387584 -30.42727797 75.77653685 -32 73.5 C-35.82103647 68.43274948 -40.38410789 64.62105213 -46.65234375 63.13671875 C-52.19199996 62.71187294 -55.76464907 63.76293964 -59.06640625 68.35546875 Z M27.9375 76.75 C27.9375 77.41 27.9375 78.07 27.9375 78.75 C27.2775 78.75 26.6175 78.75 25.9375 78.75 C25.2259375 80.2040625 25.2259375 80.2040625 24.5 81.6875 C22.01684954 86.14629572 18.44060641 89.25993814 14.66796875 92.63671875 C12.76790939 94.55865095 12.76790939 94.55865095 12.73828125 96.76953125 C14.68057184 99.97715772 17.54584691 101.42527554 20.9375 102.75 C23.69190702 103.32363609 26.31691481 103.41769753 29.125 103.375 C29.86387451 103.36879639 30.60274902 103.36259277 31.36401367 103.35620117 C38.39518118 103.08574235 44.25781481 100.97994325 49.9375 96.75 C51.30222371 95.10893792 52.64118259 93.44561692 53.9375 91.75 C54.5975 91.42 55.2575 91.09 55.9375 90.75 C59.63965669 84.48481175 60.00338226 77.88872405 58.9375 70.75 C57.56207547 67.4435873 56.05372491 65.53424011 52.9375 63.75 C42.48210451 60.91943608 33.43118546 68.39098055 27.9375 76.75 Z M-53.0625 114.75 C-52.27132096 116.74983534 -52.27132096 116.74983534 -51.0625 118.75 C-50.0725 119.08 -49.0825 119.41 -48.0625 119.75 C-47.84718592 117.64968321 -47.84718592 117.64968321 -49.4375 116.125 C-50.96218321 114.53468592 -50.96218321 114.53468592 -53.0625 114.75 Z M50.9375 114.75 C49.9475 115.245 49.9475 115.245 48.9375 115.75 C48.9375 116.41 48.9375 117.07 48.9375 117.75 C49.9275 117.42 50.9175 117.09 51.9375 116.75 C51.6075 116.09 51.2775 115.43 50.9375 114.75 Z M46.9375 117.75 C46.9375 118.74 46.9375 119.73 46.9375 120.75 C47.5975 119.76 48.2575 118.77 48.9375 117.75 C48.2775 117.75 47.6175 117.75 46.9375 117.75 Z " fill="#F6F6F8" transform="translate(188.0625,96.25)"/>
<path d="M0 0 C0.99 0.495 0.99 0.495 2 1 C1.22914063 1.48210938 0.45828125 1.96421875 -0.3359375 2.4609375 C-1.33882813 3.09257813 -2.34171875 3.72421875 -3.375 4.375 C-4.37273437 5.00148438 -5.37046875 5.62796875 -6.3984375 6.2734375 C-9.0248019 7.89269712 -9.0248019 7.89269712 -11 10 C-10.6814823 12.10820797 -10.6814823 12.10820797 -10 14 C-9.67 13.34 -9.34 12.68 -9 12 C-7.02 12 -5.04 12 -3 12 C-3 11.34 -3 10.68 -3 10 C-1.68 10.33 -0.36 10.66 1 11 C-0.07636719 11.60585937 -1.15273437 12.21171875 -2.26171875 12.8359375 C-29.93263154 28.61650753 -53.08651422 50.77399241 -63.625 81.625 C-63.92422363 82.48947754 -64.22344727 83.35395508 -64.53173828 84.24462891 C-67.0543206 91.74318821 -68.74692842 99.19240015 -70 107 C-70.18433594 107.90105469 -70.36867188 108.80210937 -70.55859375 109.73046875 C-75.05917593 143.06663938 -64.89031453 177.42307355 -44.64794922 203.98583984 C-39.00265108 210.88564868 -32.44383591 218.03744273 -25 223 C-22.84725052 222.69159401 -22.84725052 222.69159401 -21 222 C-21.55824885 218.38317647 -22.74600727 217.02083171 -25.5625 214.75 C-47.64092976 196.17420883 -61.8176277 169.34011339 -64.79492188 140.62011719 C-66.21126527 122.52464422 -65.5116242 105.32851459 -60 88 C-59.66226563 86.85402344 -59.32453125 85.70804687 -58.9765625 84.52734375 C-49.00484127 54.87459377 -25.34035261 31.68399026 2 17.8125 C19.21636585 9.27109424 36.24725026 5.82868664 55.375 5.8125 C56.27742432 5.81169434 57.17984863 5.81088867 58.10961914 5.81005859 C74.55830897 5.94573654 74.55830897 5.94573654 80 9 C80 9.66 80 10.32 80 11 C81.32 11 82.64 11 84 11 C84 11.66 84 12.32 84 13 C83.01 13 82.02 13 81 13 C81 13.99 81 14.98 81 16 C81.63808594 16.12117188 82.27617187 16.24234375 82.93359375 16.3671875 C84.17302734 16.61855469 84.17302734 16.61855469 85.4375 16.875 C86.26121094 17.03742188 87.08492187 17.19984375 87.93359375 17.3671875 C88.95646484 17.68042969 88.95646484 17.68042969 90 18 C90.33 18.66 90.66 19.32 91 20 C89.35644531 19.566875 89.35644531 19.566875 87.6796875 19.125 C66.68877321 14.04122761 43.72441139 13.44813606 23 20 C21.75476563 20.37382813 20.50953125 20.74765625 19.2265625 21.1328125 C7.97335036 24.81878871 -1.5505517 30.72896606 -11.0390625 37.71484375 C-13 39 -13 39 -15 39 C-15 39.66 -15 40.32 -15 41 C-16.6796875 42.7265625 -16.6796875 42.7265625 -18.875 44.625 C-19.59429687 45.25664063 -20.31359375 45.88828125 -21.0546875 46.5390625 C-23 48 -23 48 -25 48 C-25.2475 48.556875 -25.495 49.11375 -25.75 49.6875 C-27.22924818 52.42410913 -28.93467439 54.67650869 -31 57 C-31.66 57 -32.32 57 -33 57 C-33.39251953 58.07701172 -33.39251953 58.07701172 -33.79296875 59.17578125 C-35.04431213 62.10368179 -36.54870964 64.53985903 -38.3125 67.1875 C-53.93778788 91.52937409 -58.64647891 119.89746356 -52.84765625 148.16796875 C-49.92517197 161.37975254 -46.2314664 174.05299829 -38 185 C-32.6462535 183.44347945 -27.99849053 181.0182491 -23.125 178.375 C-22.34125 177.95476562 -21.5575 177.53453125 -20.75 177.1015625 C-18.83107943 176.0718978 -16.91522397 175.03652433 -15 174 C-14.90951328 171.89871657 -14.90951328 171.89871657 -15.6875 169.5625 C-16 167 -16 167 -14.875 165.3125 C-9.97201083 161.88040758 -5.82848216 161.62396889 0 162 C1.485 162.99 1.485 162.99 3 164 C3.25 166.5625 3.25 166.5625 3 169 C0.95301586 171.04698414 -3.30411241 170.70045693 -6 171 C-5.835 171.721875 -5.67 172.44375 -5.5 173.1875 C-6 176 -6 176 -7.39453125 177.234375 C-9.55252569 178.58806601 -11.75031081 179.80441046 -14 181 C-14.90234375 181.49757812 -15.8046875 181.99515625 -16.734375 182.5078125 C-18.60776158 183.53765761 -20.48534365 184.55991015 -22.3671875 185.57421875 C-25.60993635 187.33030678 -28.80707686 189.15519996 -32 191 C-30.042955 201.81148031 -16.20771778 209.78391687 -7.9375 215.6875 C-6.29798928 216.8010331 -4.65229199 217.90552178 -3 219 C-2.24589844 219.51304687 -1.49179688 220.02609375 -0.71484375 220.5546875 C6.6907492 225.326906 14.71831668 228.14892869 23 231 C24.34771484 231.48146484 24.34771484 231.48146484 25.72265625 231.97265625 C47.10170328 239.0752111 72.04926989 237.36246373 93 230 C94.03511719 229.66355469 95.07023438 229.32710937 96.13671875 228.98046875 C104.40760094 226.10142858 111.38357631 221.87699833 118.6640625 217.109375 C122 215 122 215 125 214 C125 213.34 125 212.68 125 212 C126.46875 210.7734375 126.46875 210.7734375 128.5 209.375 C140.0108617 200.95389591 148.8126805 189.21844315 156 177 C156.91272579 179.94590118 157.09712762 180.74861087 155.9375 183.75 C153.92584864 187.12438292 151.67742428 190.12054961 149.20703125 193.16796875 C147.72491385 195.05187308 147.72491385 195.05187308 148 198 C150.475 197.01 150.475 197.01 153 196 C152.15256692 201.94569987 146.94872264 205.83082322 143 210 C142.45214844 210.61230469 141.90429688 211.22460938 141.33984375 211.85546875 C133.65689381 220.12790335 116.71114731 234.36688835 105.09765625 235.2109375 C104.40542969 235.14132812 103.71320313 235.07171875 103 235 C103 235.66 103 236.32 103 237 C86.03990679 243.9462336 68.06210521 245.16367613 50 247 C49.61781233 248.65614657 49.28604898 250.32457024 49 252 C50.74128956 253.74128956 53.0658214 253.17269551 55.4375 253.1875 C64.02874942 253.13060431 72.48611281 252.07517233 81 251 C82.51431673 250.8111483 84.02863937 250.62234397 85.54296875 250.43359375 C86.68378906 250.29050781 87.82460937 250.14742187 89 250 C88.505 250.433125 88.01 250.86625 87.5 251.3125 C85.66781808 252.99740483 85.66781808 252.99740483 86 256 C88.97 256.33 91.94 256.66 95 257 C87.29054635 264.70945365 65.9894709 263.07830904 56 263.125 C26.88299137 262.95433811 0.80844094 254.63136985 -23.5 238.625 C-24.15363525 238.19606445 -24.80727051 237.76712891 -25.48071289 237.32519531 C-27.02757366 236.27395922 -28.52027771 235.14380832 -30 234 C-30 233.34 -30 232.68 -30 232 C-30.61875 231.690625 -31.2375 231.38125 -31.875 231.0625 C-33.25 230.375 -34.625 229.6875 -36 229 C-36 228.34 -36 227.68 -36 227 C-36.53625 226.79375 -37.0725 226.5875 -37.625 226.375 C-40.91978009 224.46749574 -43.59363628 221.95180616 -46 219 C-46 218.34 -46 217.68 -46 217 C-46.66 217 -47.32 217 -48 217 C-51 213.53846154 -51 213.53846154 -51 211 C-51.66 211 -52.32 211 -53 211 C-54.64399803 208.84569031 -56.14722972 206.70300733 -57.625 204.4375 C-58.0694043 203.75929199 -58.51380859 203.08108398 -58.97167969 202.38232422 C-79.3540386 170.81665958 -86.41565422 134.10587406 -79.07421875 97.03125 C-78.19388297 92.97504671 -77.13960337 88.99084631 -76 85 C-75.76410156 84.14792969 -75.52820313 83.29585938 -75.28515625 82.41796875 C-70.53982009 66.83417247 -61.98223975 52.70925972 -52 40 C-51.24589844 39.01644531 -50.49179688 38.03289062 -49.71484375 37.01953125 C-45.64704754 31.78528894 -45.64704754 31.78528894 -44 30 C-43.34 30 -42.68 30 -42 30 C-41.505 28.515 -41.505 28.515 -41 27 C-40.34 27 -39.68 27 -39 27 C-38.505 25.515 -38.505 25.515 -38 24 C-34.55555556 21 -34.55555556 21 -32 21 C-32 20.34 -32 19.68 -32 19 C-26.58823529 15 -26.58823529 15 -24 15 C-24 14.34 -24 13.68 -24 13 C-22.55053711 11.90258789 -22.55053711 11.90258789 -20.52734375 10.72265625 C-19.79193359 10.29146484 -19.05652344 9.86027344 -18.29882812 9.41601562 C-17.51958984 8.96935547 -16.74035156 8.52269531 -15.9375 8.0625 C-14.80924805 7.39831055 -14.80924805 7.39831055 -13.65820312 6.72070312 C-9.21820106 4.14127336 -4.8289924 1.76550423 0 0 Z " fill="#8D2DB8" transform="translate(131,62)"/>
<path d="M0 0 C1.24966553 0.00080566 2.49933105 0.00161133 3.78686523 0.00244141 C25.3752754 0.14601693 25.3752754 0.14601693 31.4375 4.1875 C31.1075 5.1775 30.7775 6.1675 30.4375 7.1875 C29.32117188 7.043125 28.20484375 6.89875 27.0546875 6.75 C-3.74091782 3.0018397 -31.12348524 5.16833076 -58.5625 20.1875 C-59.51125 20.70441406 -60.46 21.22132812 -61.4375 21.75390625 C-67.63899628 25.31007677 -73.10375218 29.58881213 -78.5625 34.1875 C-79.30242187 34.78046875 -80.04234375 35.3734375 -80.8046875 35.984375 C-96.96468071 49.44145119 -108.47533906 69.2501216 -114.5625 89.1875 C-114.77132812 89.84169922 -114.98015625 90.49589844 -115.1953125 91.16992188 C-123.56680337 118.32428308 -119.94732339 153.11374708 -106.96484375 178.28515625 C-98.42711843 193.35745038 -87.63591853 205.88813617 -74.5625 217.1875 C-74.8925 218.5075 -75.2225 219.8275 -75.5625 221.1875 C-77.2734375 221.92578125 -77.2734375 221.92578125 -79.5625 222.1875 C-81.7890625 220.66796875 -81.7890625 220.66796875 -84.1875 218.375 C-85.06664062 217.53582031 -85.94578125 216.69664062 -86.8515625 215.83203125 C-87.74617188 214.95933594 -88.64078125 214.08664062 -89.5625 213.1875 C-90.39523438 212.42824219 -91.22796875 211.66898438 -92.0859375 210.88671875 C-114.0928153 190.23357633 -125.74861571 158.3968277 -126.7734375 128.72265625 C-127.24125934 108.35726083 -123.96479786 87.50576997 -114.5625 69.1875 C-114.10617188 68.24261719 -113.64984375 67.29773438 -113.1796875 66.32421875 C-97.93287777 36.16205168 -71.30395534 14.23538155 -39.76171875 2.6484375 C-37.30633936 2.13381091 -35.90165365 2.3303267 -33.5625 3.1875 C-33.0675 3.6825 -33.0675 3.6825 -32.5625 4.1875 C-30.67401416 3.78835631 -28.80075557 3.31645746 -26.9375 2.8125 C-17.88720832 0.37325262 -9.33077003 -0.00615852 0 0 Z " fill="#F6EEF8" transform="translate(185.5625,63.8125)"/>
<path d="M0 0 C2.31 0 4.62 0 7 0 C7.03963867 0.6077124 7.07927734 1.2154248 7.12011719 1.84155273 C9.65260159 38.9788275 21.6349132 68.31503779 50.12890625 93.3828125 C50.74636719 93.91648437 51.36382812 94.45015625 52 95 C51.505 96.98 51.505 96.98 51 99 C49.2890625 99.73828125 49.2890625 99.73828125 47 100 C44.7734375 98.48046875 44.7734375 98.48046875 42.375 96.1875 C41.49585938 95.34832031 40.61671875 94.50914062 39.7109375 93.64453125 C38.81632812 92.77183594 37.92171875 91.89914062 37 91 C36.16726562 90.24074219 35.33453125 89.48148437 34.4765625 88.69921875 C14.14514426 69.61847135 1.65127784 39.58605338 0 12 C-0.11812795 7.99239994 -0.13431184 4.00696993 0 0 Z " fill="#E071F0" transform="translate(59,186)"/>
<path d="M0 0 C0 1.32 0 2.64 0 4 C0.66 4.33 1.32 4.66 2 5 C0.98679687 6.59328125 0.98679687 6.59328125 -0.046875 8.21875 C-0.94811263 9.64570958 -1.84914323 11.07279994 -2.75 12.5 C-3.1934375 13.19609375 -3.636875 13.8921875 -4.09375 14.609375 C-15.72812305 33.0874969 -21.35893136 53.26777302 -22 75 C-24.31 75 -26.62 75 -29 75 C-29.99570691 57.59356816 -24.99388481 37.50000715 -17 22 C-16.48566406 20.97390625 -15.97132812 19.9478125 -15.44140625 18.890625 C-5.66964286 0 -5.66964286 0 0 0 Z " fill="#F6EEF8" transform="translate(88,111)"/>
<path d="M0 0 C1.06347656 0.37511719 1.06347656 0.37511719 2.1484375 0.7578125 C1.8184375 2.0778125 1.4884375 3.3978125 1.1484375 4.7578125 C1.67953125 4.48066406 2.210625 4.20351562 2.7578125 3.91796875 C3.46421875 3.55574219 4.170625 3.19351563 4.8984375 2.8203125 C5.59453125 2.46066406 6.290625 2.10101563 7.0078125 1.73046875 C9.05068183 0.80223068 10.95959126 0.22614672 13.1484375 -0.2421875 C9.88942731 3.27754351 6.2623444 6.28541525 2.1484375 8.7578125 C1.4884375 8.7578125 0.8284375 8.7578125 0.1484375 8.7578125 C0.1484375 9.4178125 0.1484375 10.0778125 0.1484375 10.7578125 C-1.53125 12.484375 -1.53125 12.484375 -3.7265625 14.3828125 C-4.44585937 15.01445313 -5.16515625 15.64609375 -5.90625 16.296875 C-7.8515625 17.7578125 -7.8515625 17.7578125 -9.8515625 17.7578125 C-10.0990625 18.3146875 -10.3465625 18.8715625 -10.6015625 19.4453125 C-12.08081068 22.18192163 -13.78623689 24.43432119 -15.8515625 26.7578125 C-16.5115625 26.7578125 -17.1715625 26.7578125 -17.8515625 26.7578125 C-18.11066406 27.46679688 -18.36976562 28.17578125 -18.63671875 28.90625 C-19.93595957 31.95591494 -21.50195399 34.59261728 -23.2890625 37.3828125 C-24.18431641 38.79433594 -24.18431641 38.79433594 -25.09765625 40.234375 C-26.56095749 42.33970374 -27.96569251 44.03919092 -29.8515625 45.7578125 C-29.3565625 42.7878125 -29.3565625 42.7878125 -28.8515625 39.7578125 C-28.1915625 39.7578125 -27.5315625 39.7578125 -26.8515625 39.7578125 C-27.1815625 37.4478125 -27.5115625 35.1378125 -27.8515625 32.7578125 C-29.1715625 32.4278125 -30.4915625 32.0978125 -31.8515625 31.7578125 C-26.70627827 23.35601926 -11.53435969 -0.97963055 0 0 Z M0.1484375 4.7578125 C1.1484375 6.7578125 1.1484375 6.7578125 1.1484375 6.7578125 Z " fill="#8631AE" transform="translate(115.8515625,92.2421875)"/>
<path d="M0 0 C0.66 0.33 1.32 0.66 2 1 C1.22914063 1.48210938 0.45828125 1.96421875 -0.3359375 2.4609375 C-1.33882812 3.09257813 -2.34171875 3.72421875 -3.375 4.375 C-4.37273437 5.00148438 -5.37046875 5.62796875 -6.3984375 6.2734375 C-9.0248019 7.89269712 -9.0248019 7.89269712 -11 10 C-10.6814823 12.10820797 -10.6814823 12.10820797 -10 14 C-9.67 13.34 -9.34 12.68 -9 12 C-7.02 12 -5.04 12 -3 12 C-3 11.34 -3 10.68 -3 10 C-1.68 10.33 -0.36 10.66 1 11 C0.51120361 11.28198242 0.02240723 11.56396484 -0.48120117 11.85449219 C-2.71912051 13.14874891 -4.95331283 14.44931213 -7.1875 15.75 C-7.95642578 16.1934375 -8.72535156 16.636875 -9.51757812 17.09375 C-12.82359874 19.02344444 -15.84869786 20.87423141 -18.80078125 23.328125 C-21 25 -21 25 -25 25 C-25 24.01 -25 23.02 -25 22 C-25.86625 22.4640625 -25.86625 22.4640625 -26.75 22.9375 C-29 24 -29 24 -30.9375 24.3125 C-35.96060452 25.98686817 -39.33369165 31.522968 -42.5703125 35.546875 C-44 37 -44 37 -47 38 C-47.66 38.99 -48.32 39.98 -49 41 C-49.66 41 -50.32 41 -51 41 C-51.061875 41.78375 -51.12375 42.5675 -51.1875 43.375 C-51.5896875 44.674375 -51.5896875 44.674375 -52 46 C-54.5625 47.3125 -54.5625 47.3125 -57 48 C-55.46844274 44.5718511 -53.43584825 41.89928575 -51.0625 39 C-48.12976259 35.40998671 -48.12976259 35.40998671 -45.37109375 31.6875 C-44.91863281 31.130625 -44.46617188 30.57375 -44 30 C-43.34 30 -42.68 30 -42 30 C-41.67 29.01 -41.34 28.02 -41 27 C-40.34 27 -39.68 27 -39 27 C-38.67 26.01 -38.34 25.02 -38 24 C-34.55555556 21 -34.55555556 21 -32 21 C-32 20.34 -32 19.68 -32 19 C-26.58823529 15 -26.58823529 15 -24 15 C-24 14.34 -24 13.68 -24 13 C-22.55053711 11.90258789 -22.55053711 11.90258789 -20.52734375 10.72265625 C-19.79193359 10.29146484 -19.05652344 9.86027344 -18.29882812 9.41601562 C-17.51958984 8.96935547 -16.74035156 8.52269531 -15.9375 8.0625 C-14.80924805 7.39831055 -14.80924805 7.39831055 -13.65820312 6.72070312 C-9.21820106 4.14127336 -4.8289924 1.76550423 0 0 Z " fill="#8C30B6" transform="translate(131,62)"/>
<path d="M0 0 C0.99 0.66 1.98 1.32 3 2 C3.25 4.5625 3.25 4.5625 3 7 C0.95301586 9.04698414 -3.30411241 8.70045693 -6 9 C-5.7525 10.0828125 -5.7525 10.0828125 -5.5 11.1875 C-6 14 -6 14 -7.39453125 15.234375 C-9.5522643 16.58790205 -11.75139635 17.80310546 -14 19 C-14.89074219 19.49757812 -15.78148438 19.99515625 -16.69921875 20.5078125 C-22.06269846 23.48502997 -27.49311903 26.29851122 -33 29 C-31.48052501 25.63251488 -30.47899158 24.39159663 -27 23 C-27 22.34 -27 21.68 -27 21 C-28.65 21.33 -30.3 21.66 -32 22 C-30.76635968 19.53271935 -29.84825558 19.24875469 -27.40234375 18.0546875 C-26.68369141 17.70019531 -25.96503906 17.34570312 -25.22460938 16.98046875 C-24.46986328 16.61566406 -23.71511719 16.25085938 -22.9375 15.875 C-22.17888672 15.50246094 -21.42027344 15.12992188 -20.63867188 14.74609375 C-18.76174913 13.8253392 -16.88120604 12.91197136 -15 12 C-14.90951328 9.89871657 -14.90951328 9.89871657 -15.6875 7.5625 C-16 5 -16 5 -14.875 3.3125 C-9.97201083 -0.11959242 -5.82848216 -0.37603111 0 0 Z " fill="#692C91" transform="translate(131,224)"/>
<path d="M0 0 C1.24966553 0.00080566 2.49933105 0.00161133 3.78686523 0.00244141 C25.3752754 0.14601693 25.3752754 0.14601693 31.4375 4.1875 C31.1075 5.1775 30.7775 6.1675 30.4375 7.1875 C29.32117188 7.043125 28.20484375 6.89875 27.0546875 6.75 C9.03421145 4.55671196 -8.61085405 4.37034594 -26.5625 7.1875 C-28.89555506 7.5227755 -31.22881036 7.85667043 -33.5625 8.1875 C-33.2325 6.8675 -32.9025 5.5475 -32.5625 4.1875 C-30.70953165 3.70372009 -28.85505559 3.22571364 -27 2.75 C-25.45119141 2.34974609 -25.45119141 2.34974609 -23.87109375 1.94140625 C-15.88955433 0.12270837 -8.1533082 -0.00538137 0 0 Z " fill="#D96BEE" transform="translate(185.5625,63.8125)"/>
<path d="M0 0 C2.96912152 1.32475625 5.46853066 2.96902174 8 5 C7.625 7.4375 7.625 7.4375 7 10 C6.01 10.495 6.01 10.495 5 11 C5.5053125 11.39832031 6.010625 11.79664063 6.53125 12.20703125 C7.1809375 12.73683594 7.830625 13.26664063 8.5 13.8125 C9.1496875 14.33457031 9.799375 14.85664063 10.46875 15.39453125 C12 17 12 17 12 20 C6.58609132 19.53328373 2.79482068 18.75702189 -2 16 C-2 15.34 -2 14.68 -2 14 C-2.66 14 -3.32 14 -4 14 C-3.67 12.02 -3.34 10.04 -3 8 C-6.3 8 -9.6 8 -13 8 C-13 5.69 -13 3.38 -13 1 C-9.02444468 -0.98777766 -4.32028493 -0.54510978 0 0 Z " fill="#DFE0E4" transform="translate(254,224)"/>
<path d="M0 0 C2.75 2.4375 2.75 2.4375 5 5 C5.33 5.33 5.66 5.66 6 6 C6.57435881 10.11623816 6.13360773 11.78136916 3.9375 15.375 C1 18 1 18 -2.5625 18.5625 C-7.87855787 17.69259962 -7.87855787 17.69259962 -10 15 C-11.00513662 10.74993413 -11.38947148 7.16841444 -10 3 C-6.67546609 0.50659957 -4.15529266 -0.83105853 0 0 Z M-4 7 C-4 8.32 -4 9.64 -4 11 C-3.01 11 -2.02 11 -1 11 C-1 9.68 -1 8.36 -1 7 C-1.99 7 -2.98 7 -4 7 Z " fill="#E0E1E5" transform="translate(233,95)"/>
<path d="M0 0 C0.66 1.32 1.32 2.64 2 4 C1.01 5.485 1.01 5.485 0 7 C-0.66 7 -1.32 7 -2 7 C-2 7.66 -2 8.32 -2 9 C-1.01 9.66 -0.02 10.32 1 11 C0.67 12.65 0.34 14.3 0 16 C-2.29160319 16.02692484 -4.58329546 16.04636124 -6.875 16.0625 C-8.15117187 16.07410156 -9.42734375 16.08570313 -10.7421875 16.09765625 C-14 16 -14 16 -16 15 C-16.3125 12.8125 -16.3125 12.8125 -16 10 C-13.875 7.5 -13.875 7.5 -11 5 C-10.50757813 4.52949219 -10.01515625 4.05898437 -9.5078125 3.57421875 C-6.32658434 0.64847782 -4.35087211 -0.63983413 0 0 Z " fill="#EFF0F2" transform="translate(139,237)"/>
<path d="M0 0 C3.61177103 0.24078474 5.54126348 0.62576757 8.375 2.9375 C10 5 10 5 10 7 C12.97 7.495 12.97 7.495 16 8 C16.38063221 10.3260857 16.71269945 12.66055264 17 15 C16 16 16 16 12.91015625 16.1328125 C11.64042969 16.13023437 10.37070313 16.12765625 9.0625 16.125 C7.16177734 16.12886719 7.16177734 16.12886719 5.22265625 16.1328125 C2 16 2 16 0 15 C0.165 14.401875 0.33 13.80375 0.5 13.1875 C1.1114124 10.88655664 1.1114124 10.88655664 1 8 C0.484375 7.525625 -0.03125 7.05125 -0.5625 6.5625 C-1.036875 6.046875 -1.51125 5.53125 -2 5 C-1.74853421 2.86254078 -1.54074221 1.54074221 0 0 Z " fill="#E7E8EB" transform="translate(236,237)"/>
<path d="M0 0 C0.33 0.66 0.66 1.32 1 2 C0.67 2.66 0.34 3.32 0 4 C0.66 4.33 1.32 4.66 2 5 C1.19175781 5.73605469 0.38351563 6.47210938 -0.44921875 7.23046875 C-1.52870221 8.21608409 -2.60812612 9.20176465 -3.6875 10.1875 C-4.48317383 10.91163086 -4.48317383 10.91163086 -5.29492188 11.65039062 C-8.61727252 14.687386 -11.84058321 17.7936902 -15 21 C-17.31 20.34 -19.62 19.68 -22 19 C-22 18.01 -22 17.02 -22 16 C-21.01 16 -20.02 16 -19 16 C-18.73960938 15.42378906 -18.47921875 14.84757812 -18.2109375 14.25390625 C-16.91280192 11.83769905 -15.4380757 9.99205521 -13.625 7.9375 C-12.74714844 6.93009766 -12.74714844 6.93009766 -11.8515625 5.90234375 C-10.0239296 4.02458589 -8.13635135 2.51050393 -6 1 C-6 1.66 -6 2.32 -6 3 C-2.75016865 1.91215032 -2.75016865 1.91215032 0 0 Z " fill="#9032B8" transform="translate(106,83)"/>
<path d="M0 0 C0.33 0 0.66 0 1 0 C5.34811601 26.63221055 -1.01956403 55.64809907 -14 79 C-15.14453125 77.27734375 -15.14453125 77.27734375 -16 75 C-15.13671875 72.81640625 -15.13671875 72.81640625 -13.6875 70.5625 C-11.6444017 67.34392049 -10.56739523 64.78485998 -10 61 C-9.01 61 -8.02 61 -7 61 C-6.93941406 60.08476562 -6.87882812 59.16953125 -6.81640625 58.2265625 C-6.73261719 57.03804687 -6.64882813 55.84953125 -6.5625 54.625 C-6.48128906 53.44164062 -6.40007812 52.25828125 -6.31640625 51.0390625 C-6 48 -6 48 -5 46 C-4.8219644 44.58701906 -4.68076947 43.16923364 -4.5625 41.75 C-4.17541982 37.92220715 -3.34688129 34.61974346 -2 31 C-0.94832205 27.56158556 -0.80200273 24.28922552 -0.68359375 20.703125 C-0.64169922 19.49785156 -0.59980469 18.29257813 -0.55664062 17.05078125 C-0.51732422 15.79652344 -0.47800781 14.54226562 -0.4375 13.25 C-0.39431641 11.98027344 -0.35113281 10.71054688 -0.30664062 9.40234375 C-0.20060278 6.26833635 -0.09853942 3.13425067 0 0 Z " fill="#69288C" transform="translate(324,173)"/>
<path d="M0 0 C1.65 0 3.3 0 5 0 C5.33 2.31 5.66 4.62 6 7 C5.34 7 4.68 7 4 7 C3.34 9.31 2.68 11.62 2 14 C1.34 14 0.68 14 0 14 C-0.33 15.32 -0.66 16.64 -1 18 C-2 15 -2 15 -1 12 C-5.82804478 14.58645256 -7.30477383 19.06907243 -9 24 C-9.85094332 27.28220994 -10.59997053 30.56691683 -11.2890625 33.88671875 C-12.00284883 37.01247539 -12.95203165 39.97205865 -14 43 C-14.34976758 44.32911682 -14.69096017 45.66082739 -15 47 C-16.45818617 41.41028635 -15.38917661 37.21958446 -13.875 31.8125 C-13.52876587 30.5450293 -13.52876587 30.5450293 -13.17553711 29.25195312 C-11.36710275 22.84654377 -9.13063084 16.88595214 -6 11 C-5.45601562 9.97519531 -4.91203125 8.95039063 -4.3515625 7.89453125 C-2.92351307 5.2496228 -1.47431827 2.61932147 0 0 Z " fill="#8C37B5" transform="translate(83,125)"/>
<path d="M0 0 C3.82246363 0.54606623 5.58848176 2.02579418 8 5 C9.25 8.25 9.25 8.25 10 11 C9.401875 10.773125 8.80375 10.54625 8.1875 10.3125 C5.98120669 9.73942817 5.98120669 9.73942817 4.4375 11.125 C2.89128602 13.03767117 2.89128602 13.03767117 1.625 15.5625 C-0.29492093 18.44238139 -1.73894457 19.03049703 -5 20 C-7.5 18.1875 -7.5 18.1875 -10 16 C-10 15.01 -10 14.02 -10 13 C-7.4453125 11.17578125 -7.4453125 11.17578125 -4.125 9.3125 C-2.48917969 8.37857422 -2.48917969 8.37857422 -0.8203125 7.42578125 C2 6 2 6 4 6 C2.68 4.02 1.36 2.04 0 0 Z " fill="#522575" transform="translate(264,106)"/>
<path d="M0 0 C0.04254356 1.99954746 0.04080783 4.00041636 0 6 C-1 7 -1 7 -4.81640625 7.09765625 C-6.39846682 7.09098089 -7.98051159 7.07901875 -9.5625 7.0625 C-10.36880859 7.05798828 -11.17511719 7.05347656 -12.00585938 7.04882812 C-14.00393756 7.03700518 -16.00197783 7.01906914 -18 7 C-19.125 1.25 -19.125 1.25 -18 -1 C-15.234375 -1.484375 -15.234375 -1.484375 -11.75 -1.75 C-10.61046875 -1.84796875 -9.4709375 -1.9459375 -8.296875 -2.046875 C-4.98663857 -1.99981003 -2.94771151 -1.44061089 0 0 Z " fill="#E9EBED" transform="translate(291,183)"/>
<path d="M0 0 C1.58206057 0.00667536 3.16410534 0.0186375 4.74609375 0.03515625 C5.55240234 0.03966797 6.35871094 0.04417969 7.18945312 0.04882812 C9.18753131 0.06065107 11.18557158 0.07858711 13.18359375 0.09765625 C14.30859375 5.84765625 14.30859375 5.84765625 13.18359375 8.09765625 C10.55832186 8.15147731 7.93414662 8.19123938 5.30859375 8.22265625 C4.56222656 8.23941406 3.81585938 8.25617188 3.046875 8.2734375 C1.09164914 8.29105215 -0.86382646 8.20085814 -2.81640625 8.09765625 C-4.81640625 6.09765625 -4.81640625 6.09765625 -5.00390625 3.53515625 C-4.69639704 -0.46246345 -4.23140036 0.10827534 0 0 Z " fill="#F0F0F3" transform="translate(87.81640625,181.90234375)"/>
<path d="M0 0 C0.99 0.66 1.98 1.32 3 2 C3.25 4.5625 3.25 4.5625 3 7 C0.54276038 9.45723962 -5.39079353 8.98617404 -8.75390625 9.0625 C-11.17012365 9.0625 -13.58422331 9.04455326 -16 9 C-15.25 4.25 -15.25 4.25 -13 2 C-8.57662273 -0.34178797 -4.89653891 -0.31590574 0 0 Z " fill="#E4E5E9" transform="translate(131,224)"/>
<path d="M0 0 C2.16718509 0.11566437 4.33374716 0.24302241 6.5 0.375 C7.7065625 0.44460938 8.913125 0.51421875 10.15625 0.5859375 C14 1 14 1 17.74584961 2.00708008 C21.80298104 3.04551496 25.73295778 3.30640282 29.91015625 3.30078125 C31.00510658 3.30720894 31.00510658 3.30720894 32.12217712 3.31376648 C33.65915906 3.31947103 35.19616797 3.32003889 36.7331543 3.31567383 C39.03288412 3.31254035 41.33129041 3.33592806 43.63085938 3.36132812 C52.32303073 3.39672627 60.29877313 2.6552299 68.76342773 0.64526367 C71.93603282 0.01275291 74.77525779 -0.11574745 78 0 C70.29054635 7.70945365 48.9894709 6.07830904 39 6.125 C25.4194537 6.0454011 13.09817608 4.40933155 0 1 C0 0.67 0 0.34 0 0 Z " fill="#62268A" transform="translate(148,319)"/>
<path d="M0 0 C0.8112735 -0.00163147 1.622547 -0.00326294 2.45840454 -0.00494385 C10.77500072 -0.00305436 18.75564988 0.05180216 26.8125 2.375 C26.8125 2.705 26.8125 3.035 26.8125 3.375 C26.13896484 3.34470703 25.46542969 3.31441406 24.77148438 3.28320312 C18.16206408 2.99035219 11.55211113 2.7271906 4.94042969 2.49072266 C3.08143071 2.42194608 1.22259143 2.34805763 -0.63574219 2.26318359 C-9.67146116 1.85475402 -17.80045946 2.81165043 -26.54443359 4.9519043 C-31.57077931 6.16655942 -36.0120768 6.56319721 -41.1875 6.375 C-32.50240294 -2.31009706 -11.48064463 -0.01097132 0 0 Z " fill="#6E2A98" transform="translate(188.1875,50.625)"/>
<path d="M0 0 C0.66 0.33 1.32 0.66 2 1 C0.71937515 2.7074998 -0.61767557 4.37373596 -2 6 C-2.66 6 -3.32 6 -4 6 C-4.33 6.99 -4.66 7.98 -5 9 C-6.64302953 10.68997323 -8.31471312 12.35216394 -10 14 C-11.5475462 15.83068122 -13.06789648 17.67900644 -14.5703125 19.546875 C-16 21 -16 21 -19 22 C-19.66 22.99 -20.32 23.98 -21 25 C-21.66 25 -22.32 25 -23 25 C-23.061875 25.78375 -23.12375 26.5675 -23.1875 27.375 C-23.5896875 28.674375 -23.5896875 28.674375 -24 30 C-26.5625 31.3125 -26.5625 31.3125 -29 32 C-27.46844274 28.5718511 -25.43584825 25.89928575 -23.0625 23 C-20.12976259 19.40998671 -20.12976259 19.40998671 -17.37109375 15.6875 C-16.91863281 15.130625 -16.46617188 14.57375 -16 14 C-15.34 14 -14.68 14 -14 14 C-13.67 13.01 -13.34 12.02 -13 11 C-12.34 11 -11.68 11 -11 11 C-10.67 10.01 -10.34 9.02 -10 8 C-6.55555556 5 -6.55555556 5 -4 5 C-4 4.34 -4 3.68 -4 3 C-2 1.375 -2 1.375 0 0 Z " fill="#7E2EAC" transform="translate(103,78)"/>
<path d="M0 0 C2.05859375 0.3359375 2.05859375 0.3359375 4.05859375 2.3359375 C4.30859375 4.8359375 4.30859375 4.8359375 4.05859375 7.3359375 C2.05859375 9.3359375 2.05859375 9.3359375 -0.32421875 9.53125 C-1.22914062 9.50804687 -2.1340625 9.48484375 -3.06640625 9.4609375 C-4.43152344 9.43386719 -4.43152344 9.43386719 -5.82421875 9.40625 C-6.52289063 9.38304687 -7.2215625 9.35984375 -7.94140625 9.3359375 C-9.12890625 7.0859375 -9.12890625 7.0859375 -9.94140625 4.3359375 C-8.20852399 -0.59611201 -4.54544697 -0.07463788 0 0 Z " fill="#F6F3F9" transform="translate(99.94140625,165.6640625)"/>
<path d="M0 0 C6.2542099 1.20273267 10.89505238 4.17064986 15 9 C15 9.99 15 10.98 15 12 C9.58609132 11.53328373 5.79482068 10.75702189 1 8 C1 7.34 1 6.68 1 6 C0.34 6 -0.32 6 -1 6 C-0.67 4.02 -0.34 2.04 0 0 Z " fill="#411F65" transform="translate(251,232)"/>
<path d="M0 0 C0.7940625 -0.01675781 1.588125 -0.03351563 2.40625 -0.05078125 C3.0971875 0.06910156 3.788125 0.18898437 4.5 0.3125 C6.5 3.3125 6.5 3.3125 6.125 6 C5.91875 6.763125 5.7125 7.52625 5.5 8.3125 C4.241875 8.498125 2.98375 8.68375 1.6875 8.875 C0.62595703 9.03162109 0.62595703 9.03162109 -0.45703125 9.19140625 C-2.5 9.3125 -2.5 9.3125 -5.5 8.3125 C-6.125 5.4375 -6.125 5.4375 -6.5 2.3125 C-4.07477793 -0.11272207 -3.3279321 0.01620746 0 0 Z " fill="#DCDDE3" transform="translate(261.5,210.6875)"/>
<path d="M0 0 C-0.37156474 2.69384434 -0.75494175 3.7802926 -2.8125 5.625 C-3.534375 6.07875 -4.25625 6.5325 -5 7 C-5.598125 7.391875 -6.19625 7.78375 -6.8125 8.1875 C-9.90132263 9.33477698 -12.73827121 9.12545111 -16 9 C-16 7.35 -16 5.7 -16 4 C-10.45108785 1.18150494 -6.258654 -0.5326514 0 0 Z " fill="#422161" transform="translate(153,95)"/>
<path d="M0 0 C1 1 1 1 1.125 4 C1 7 1 7 0 8 C-1.99609375 8.16796875 -1.99609375 8.16796875 -4.4375 8.1875 C-5.64212891 8.20876953 -5.64212891 8.20876953 -6.87109375 8.23046875 C-9 8 -9 8 -11 6 C-10.75 3.4375 -10.75 3.4375 -10 1 C-6.74696956 -0.62651522 -3.60774398 -0.11453156 0 0 Z " fill="#E1E2E8" transform="translate(118,211)"/>
<path d="M0 0 C12.57430055 2.90176167 24.64136657 9.40366882 35 17 C34.01 17.495 34.01 17.495 33 18 C30.375 17.0625 30.375 17.0625 28 16 C28 15.34 28 14.68 28 14 C25.69 13.67 23.38 13.34 21 13 C21 12.34 21 11.68 21 11 C19.8553125 10.6596875 19.8553125 10.6596875 18.6875 10.3125 C12.25843425 8.02418846 6.08408445 5.08488789 0 2 C0 1.34 0 0.68 0 0 Z " fill="#722D9B" transform="translate(232,58)"/>
<path d="M0 0 C2.1875 -0.3125 2.1875 -0.3125 5 0 C7.875 2.1875 7.875 2.1875 10 5 C9.8125 7.8125 9.8125 7.8125 9 10 C7.35 10.33 5.7 10.66 4 11 C0.38860104 7.21243523 0.38860104 7.21243523 -1 5 C-0.8125 2.125 -0.8125 2.125 0 0 Z " fill="#E2E2E5" transform="translate(222,250)"/>
<path d="M0 0 C1.32 0.33 2.64 0.66 4 1 C3.67 2.32 3.34 3.64 3 5 C3.53109375 4.72285156 4.0621875 4.44570312 4.609375 4.16015625 C5.66898438 3.61681641 5.66898438 3.61681641 6.75 3.0625 C7.44609375 2.70285156 8.1421875 2.34320313 8.859375 1.97265625 C10.90224433 1.04441818 12.81115376 0.46833422 15 0 C11.74098981 3.51973101 8.1139069 6.52760275 4 9 C3.34 9 2.68 9 2 9 C2 9.66 2 10.32 2 11 C0.02 11.99 0.02 11.99 -2 13 C-3 5.25 -3 5.25 -3 3 C-2.01 3 -1.02 3 0 3 C0 2.01 0 1.02 0 0 Z M2 5 C3 7 3 7 3 7 Z " fill="#872CB0" transform="translate(114,92)"/>
<path d="M0 0 C2 0 2 0 3.4375 1.125 C5.79874854 3.95849825 8 7.22962603 8 11 C8.66 11 9.32 11 10 11 C10.39832031 11.77085937 10.79664062 12.54171875 11.20703125 13.3359375 C11.73683594 14.33882813 12.26664063 15.34171875 12.8125 16.375 C13.33457031 17.37273437 13.85664062 18.37046875 14.39453125 19.3984375 C15.89164684 22.22876117 15.89164684 22.22876117 19 24 C19.68268138 25.32520503 20.3507041 26.65812182 21 28 C21.66 28.33 22.32 28.66 23 29 C23.625 31.5625 23.625 31.5625 24 34 C23.34 33.67 22.68 33.34 22 33 C22 32.34 22 31.68 22 31 C21.34 31 20.68 31 20 31 C17 27.53846154 17 27.53846154 17 25 C16.34 25 15.68 25 15 25 C13.29816001 22.74092037 11.72853107 20.49071686 10.1875 18.125 C9.51581787 17.10684204 9.51581787 17.10684204 8.83056641 16.06811523 C5.47181601 10.9029216 2.51709256 5.63033862 0 0 Z " fill="#712F9D" transform="translate(63,248)"/>
<path d="M0 0 C0 0.66 0 1.32 0 2 C-0.66 2 -1.32 2 -2 2 C-2.33 2.99 -2.66 3.98 -3 5 C-4.32467746 5.6837045 -5.65863633 6.34964186 -7 7 C-7.99 8.485 -7.99 8.485 -9 10 C-10.65 9.67 -12.3 9.34 -14 9 C-14.20625 9.61875 -14.4125 10.2375 -14.625 10.875 C-16.54775888 13.84653645 -18.66594527 14.13024659 -22 15 C-22.66 14.34 -23.32 13.68 -24 13 C-4.11538462 0 -4.11538462 0 0 0 Z " fill="#8F41B6" transform="translate(138,78)"/>
<path d="M0 0 C1 1 1 1 1.3125 3.3125 C1 6 1 6 -0.6875 8.375 C-3 10 -3 10 -5.75 9.75 C-6.4925 9.5025 -7.235 9.255 -8 9 C-8.75 6.75 -8.75 6.75 -9 4 C-6.41413852 0.32012021 -4.44565581 -0.6007643 0 0 Z " fill="#E3E3E8" transform="translate(153,250)"/>
<path d="M0 0 C0 0.99 0 1.98 0 3 C-1.65 3 -3.3 3 -5 3 C-5 3.99 -5 4.98 -5 6 C-5.99 6 -6.98 6 -8 6 C-8.24492188 6.61359375 -8.48984375 7.2271875 -8.7421875 7.859375 C-10.25052285 10.42635567 -11.44256788 11.03857904 -14.125 12.25 C-14.84945312 12.58515625 -15.57390625 12.9203125 -16.3203125 13.265625 C-17.15175781 13.62914062 -17.15175781 13.62914062 -18 14 C-16.48052501 10.63251488 -15.47899158 9.39159663 -12 8 C-12 7.34 -12 6.68 -12 6 C-13.65 6.33 -15.3 6.66 -17 7 C-14.31102761 1.62205522 -5.55884098 -0.73142645 0 0 Z " fill="#6F2E95" transform="translate(116,239)"/>
<path d="M0 0 C2.33294775 -0.04241723 4.66702567 -0.04092937 7 0 C8 1 8 1 8.1875 3.9375 C8 7 8 7 6 9 C3.5625 9.4375 3.5625 9.4375 1 9 C-0.9375 6.75 -0.9375 6.75 -2 4 C-1.1875 1.6875 -1.1875 1.6875 0 0 Z " fill="#DDDDE2" transform="translate(114,128)"/>
<path d="M0 0 C0.625 1.875 0.625 1.875 1 4 C-1.26568725 6.26568725 -2.43233985 6.55280451 -5.5 7.25 C-6.2940625 7.44078125 -7.088125 7.6315625 -7.90625 7.828125 C-8.5971875 7.88484375 -9.288125 7.9415625 -10 8 C-10.66 7.34 -11.32 6.68 -12 6 C-11.875 4 -11.875 4 -11 2 C-7.62883396 -0.59320464 -4.09818116 -0.15762235 0 0 Z " fill="#4D2171" transform="translate(168,89)"/>
<path d="M0 0 C2.33294775 -0.04241723 4.66702567 -0.04092937 7 0 C8 1 8 1 8.0625 4.5625 C8.041875 5.696875 8.02125 6.83125 8 8 C4.625 8.625 4.625 8.625 1 9 C0.34 8.34 -0.32 7.68 -1 7 C-0.625 3.375 -0.625 3.375 0 0 Z " fill="#E0E0E8" transform="translate(253,128)"/>
<path d="M0 0 C0.33 1.32 0.66 2.64 1 4 C0.34 4 -0.32 4 -1 4 C-1.268125 4.598125 -1.53625 5.19625 -1.8125 5.8125 C-2.99917406 7.99847854 -4.09599113 9.41332594 -6 11 C-6.66 11 -7.32 11 -8 11 C-8 11.66 -8 12.32 -8 13 C-8.804375 13.268125 -9.60875 13.53625 -10.4375 13.8125 C-11.283125 14.204375 -12.12875 14.59625 -13 15 C-13.33 15.99 -13.66 16.98 -14 18 C-15.98 18.33 -17.96 18.66 -20 19 C-19.01 17.515 -19.01 17.515 -18 16 C-17.34 16 -16.68 16 -16 16 C-16 15.34 -16 14.68 -16 14 C-14.53125 12.7734375 -14.53125 12.7734375 -12.5 11.375 C-7.85516439 8.02408288 -3.94594363 4.13484519 0 0 Z " fill="#732F99" transform="translate(272,260)"/>
<path d="M0 0 C1.58740996 3.97820424 0.29488808 6.46359779 -1.25 10.3125 C-5.86807181 22.43314268 -7.45539687 35.18887995 -9 48 C-9.33 48 -9.66 48 -10 48 C-10.61039587 31.68886589 -7.9569847 14.49854424 0 0 Z " fill="#8940A7" transform="translate(68,136)"/>
<path d="M0 0 C0.99 0 1.98 0 3 0 C3 0.66 3 1.32 3 2 C3.99 2 4.98 2 6 2 C5.34 3.65 4.68 5.3 4 7 C3.34 7 2.68 7 2 7 C1.690625 7.61875 1.38125 8.2375 1.0625 8.875 C0.375 10.25 -0.3125 11.625 -1 13 C-1.66 13 -2.32 13 -3 13 C-3.25523437 13.58265625 -3.51046875 14.1653125 -3.7734375 14.765625 C-5.11741087 17.21388223 -6.61810296 18.81743248 -8.625 20.75 C-9.57246094 21.67039062 -9.57246094 21.67039062 -10.5390625 22.609375 C-11.02117187 23.06828125 -11.50328125 23.5271875 -12 24 C-12.33 23.34 -12.66 22.68 -13 22 C-12.195625 21.2575 -11.39125 20.515 -10.5625 19.75 C-8.03522184 17.03779905 -7.80262717 16.3251697 -7 13 C-5.6846659 12.29848848 -4.34882408 11.63474075 -3 11 C-0.24290599 8.34137364 -0.00834778 7.16695558 0.1875 3.25 C0.125625 2.1775 0.06375 1.105 0 0 Z " fill="#7A2CA3" transform="translate(295,263)"/>
<path d="M0 0 C2 1.5 2 1.5 4 4 C4.35800135 6.75871627 4.18660165 9.20097524 4 12 C2.1875 12.625 2.1875 12.625 0 13 C-0.99 12.34 -1.98 11.68 -3 11 C-3.1875 7.375 -3.1875 7.375 -3 4 C-2.01 3.67 -1.02 3.34 0 3 C0 2.01 0 1.02 0 0 Z " fill="#CAC9D5" transform="translate(155,273)"/>
<path d="M0 0 C0.66 0.66 1.32 1.32 2 2 C1.625 4.625 1.625 4.625 1 7 C-1.64 7 -4.28 7 -7 7 C-7.66 5.68 -8.32 4.36 -9 3 C-6.40257043 -0.46323942 -4.16948329 -0.44356205 0 0 Z " fill="#D4D4DB" transform="translate(288,197)"/>
<path d="M0 0 C0.80261075 2.31007837 1.15535799 3.56012012 0.328125 5.90234375 C-0.02765625 6.57394531 -0.3834375 7.24554688 -0.75 7.9375 C-3.07765589 12.78544538 -4.19950297 17.6376055 -5.2890625 22.88671875 C-6.00284883 26.01247539 -6.95203165 28.97205865 -8 32 C-8.34976758 33.32911682 -8.69096017 34.66082739 -9 36 C-10.45842768 30.40936057 -9.38788178 26.22055595 -7.875 20.8125 C-7.64852783 19.97549561 -7.42205566 19.13849121 -7.1887207 18.27612305 C-5.39631372 11.88314303 -3.10597906 5.88153481 0 0 Z " fill="#8E4DB5" transform="translate(77,136)"/>
<path d="M0 0 C2.5285716 3.06936436 3.94660515 6.04959454 5.375 9.75 C7.46149351 14.92501125 9.88855413 19.37728041 13 24 C14.98 23.67 16.96 23.34 19 23 C19 23.66 19 24.32 19 25 C17.02 25.66 15.04 26.32 13 27 C11.5 25.625 11.5 25.625 10 24 C10 23.34 10 22.68 10 22 C9.34 22 8.68 22 8 22 C5.39727638 18.26565742 3.72360204 14.19659627 2 10 C1.608125 9.13375 1.21625 8.2675 0.8125 7.375 C-0.07530939 4.77986487 -0.15563499 2.72361231 0 0 Z " fill="#622885" transform="translate(80,223)"/>
<path d="M0 0 C0.99 0.495 0.99 0.495 2 1 C2.59765625 3.29296875 2.59765625 3.29296875 3.0625 6.1875 C3.29646484 7.60095703 3.29646484 7.60095703 3.53515625 9.04296875 C3.68855469 10.01878906 3.84195312 10.99460938 4 12 C4.19078125 12.89847656 4.3815625 13.79695312 4.578125 14.72265625 C5.16370906 19.27177683 4.92789201 23.67925872 4.6875 28.25 C4.63432617 29.61511719 4.63432617 29.61511719 4.58007812 31.0078125 C4.53689453 31.87664062 4.49371094 32.74546875 4.44921875 33.640625 C4.39254028 34.82446777 4.39254028 34.82446777 4.3347168 36.03222656 C4 38 4 38 2 40 C2.01047363 39.39639648 2.02094727 38.79279297 2.03173828 38.17089844 C2.38841783 23.21705574 2.38841783 23.21705574 0.4375 8.4375 C-0.07347434 5.59064299 -0.06712191 2.88624192 0 0 Z " fill="#6A2D93" transform="translate(297,162)"/>
<path d="M0 0 C0.91272579 2.94590118 1.09712762 3.74861087 -0.0625 6.75 C-3.30999367 12.19740874 -6.60768131 17.48137589 -12 21 C-12.66 21 -13.32 21 -14 21 C-12.57599459 17.88542659 -10.84173763 15.40577854 -8.6875 12.75 C-5.45771729 8.67560884 -2.64443039 4.47237766 0 0 Z " fill="#6D2C91" transform="translate(287,239)"/>
<path d="M0 0 C3.82246363 0.54606623 5.58848176 2.02579418 8 5 C9.25 8.25 9.25 8.25 10 11 C9.401875 10.773125 8.80375 10.54625 8.1875 10.3125 C7.465625 10.209375 6.74375 10.10625 6 10 C3.74015575 11.73834173 2.60199072 13.59701393 1 16 C0.875 10.25 0.875 10.25 2 8 C1.34 7.67 0.68 7.34 0 7 C1.32 6.67 2.64 6.34 4 6 C2.68 4.02 1.36 2.04 0 0 Z " fill="#481F6C" transform="translate(264,106)"/>
<path d="M0 0 C4.17244574 0.60137777 7.95199866 1.57822348 11.9375 2.9375 C19.2353525 5.25494739 26.40722198 6.20186566 34 7 C34 7.33 34 7.66 34 8 C23.11499653 8.54729068 12.08066052 7.39952926 2 3 C2 2.34 2 1.68 2 1 C1.34 0.67 0.68 0.34 0 0 Z " fill="#622589" transform="translate(145,291)"/>
<path d="M0 0 C1.67542976 0.28604898 3.34385343 0.61781233 5 1 C5.6875 3.8125 5.6875 3.8125 6 7 C4.5625 8.875 4.5625 8.875 3 10 C1.68 9.34 0.36 8.68 -1 8 C-1.04241723 5.66705225 -1.04092937 3.33297433 -1 1 C-0.67 0.67 -0.34 0.34 0 0 Z " fill="#D1D1D8" transform="translate(217,275)"/>
<path d="M0 0 C2.625 0.375 2.625 0.375 5 1 C5.625 3.375 5.625 3.375 6 6 C5.34 6.66 4.68 7.32 4 8 C1.375 7.625 1.375 7.625 -1 7 C-1.625 4.625 -1.625 4.625 -2 2 C-1.34 1.34 -0.68 0.68 0 0 Z " fill="#C6C6CE" transform="translate(121,110)"/>
<path d="M0 0 C6.23681626 0.53741274 12.32352854 1.16176427 18 4 C18.33 4.99 18.66 5.98 19 7 C20.49985609 8.66710346 20.49985609 8.66710346 22 10 C18.61132553 10 17.39061787 9.29192297 14.5 7.625 C13.7265625 7.18414062 12.953125 6.74328125 12.15625 6.2890625 C10.40644604 5.24298405 8.69625937 4.13083958 7 3 C4.67891331 2.29187186 2.34622853 1.61975848 0 1 C0 0.67 0 0.34 0 0 Z " fill="#712A99" transform="translate(228,84)"/>
<path d="M0 0 C0.33 0 0.66 0 1 0 C1.55253221 7.35174806 0.51064108 12.511583 -3 19 C-3.99 19 -4.98 19 -6 19 C-6.33 19.99 -6.66 20.98 -7 22 C-6.5585081 18.57843781 -5.50471539 15.78638661 -4.0625 12.6875 C-2.13396908 8.50784754 -0.98011261 4.49218281 0 0 Z " fill="#712E96" transform="translate(295,217)"/>
<path d="M0 0 C0.33 0 0.66 0 1 0 C0.88529624 3.02153855 0.7585615 6.04178401 0.625 9.0625 C0.5940625 9.91005859 0.563125 10.75761719 0.53125 11.63085938 C0.29468217 16.73678171 -0.38044506 21.14791873 -2 26 C-2.33 26 -2.66 26 -3 26 C-2.88529624 22.97846145 -2.7585615 19.95821599 -2.625 16.9375 C-2.5940625 16.08994141 -2.563125 15.24238281 -2.53125 14.36914062 C-2.29468217 9.26321829 -1.61955494 4.85208127 0 0 Z " fill="#703295" transform="translate(53,157)"/>
<path d="M0 0 C0 0.66 0 1.32 0 2 C0.66 2.33 1.32 2.66 2 3 C0.625 5 0.625 5 -1 7 C-1.66 7 -2.32 7 -3 7 C-3.4021875 8.1446875 -3.4021875 8.1446875 -3.8125 9.3125 C-4.9612484 11.91229902 -5.9685876 13.10215992 -8 15 C-5.78640777 0 -5.78640777 0 0 0 Z " fill="#772A9F" transform="translate(101,112)"/>
<path d="M0 0 C1.1446875 0.3403125 1.1446875 0.3403125 2.3125 0.6875 C2.3125 2.6675 2.3125 4.6475 2.3125 6.6875 C0.0025 6.6875 -2.3075 6.6875 -4.6875 6.6875 C-5.375 4.875 -5.375 4.875 -5.6875 2.6875 C-3.97309355 -0.07459928 -3.26180423 -0.37927956 0 0 Z " fill="#D7D7DC" transform="translate(234.6875,266.3125)"/>
<path d="M0 0 C1.65 0.33 3.3 0.66 5 1 C5.04254356 2.99954746 5.04080783 5.00041636 5 7 C4 8 4 8 1.4375 8.0625 C0.633125 8.041875 -0.17125 8.02125 -1 8 C-1.625 5.6875 -1.625 5.6875 -2 3 C-1.34 2.01 -0.68 1.02 0 0 Z " fill="#C9CDD1" transform="translate(277,166)"/>
<path d="M0 0 C0 1.98 0 3.96 0 6 C-2.31 6 -4.62 6 -7 6 C-7 4.02 -7 2.04 -7 0 C-4.3333581 -1.33332095 -2.83319697 -0.67102033 0 0 Z " fill="#C5C5CF" transform="translate(145,267)"/>
<path d="M0 0 C2.8724952 2.8724952 3.24278816 6.2824773 4.125 10.125 C4.30675781 10.85976562 4.48851562 11.59453125 4.67578125 12.3515625 C5.84594283 17.34894428 6.17449483 21.86985194 6 27 C5.67 27 5.34 27 5 27 C4.87882812 26.43152344 4.75765625 25.86304688 4.6328125 25.27734375 C3.84993121 21.67006766 3.04699365 18.14927394 1.9375 14.625 C0.68610778 9.78628341 0.34187296 4.97515118 0 0 Z " fill="#652587" transform="translate(318,145)"/>
<path d="M0 0 C1.2065625 0.0309375 1.2065625 0.0309375 2.4375 0.0625 C3.0975 1.7125 3.7575 3.3625 4.4375 5.0625 C3.7775 5.7225 3.1175 6.3825 2.4375 7.0625 C-0.6875 6.6875 -0.6875 6.6875 -3.5625 6.0625 C-3.605221 4.39638095 -3.60313832 2.72867115 -3.5625 1.0625 C-2.5625 0.0625 -2.5625 0.0625 0 0 Z " fill="#CDCED4" transform="translate(267.5625,127.9375)"/>
<path d="M0 0 C2.5 0.125 2.5 0.125 3.5 1.125 C3.625 3.625 3.625 3.625 3.5 6.125 C2.5 7.125 2.5 7.125 0 7.25 C-2.5 7.125 -2.5 7.125 -3.5 6.125 C-3.625 3.625 -3.625 3.625 -3.5 1.125 C-2.5 0.125 -2.5 0.125 0 0 Z " fill="#D2D2DA" transform="translate(275.5,213.875)"/>
<path d="M0 0 C2.05859375 0.3359375 2.05859375 0.3359375 4.05859375 2.3359375 C4.18359375 4.9609375 4.18359375 4.9609375 4.05859375 7.3359375 C3.06859375 7.8309375 3.06859375 7.8309375 2.05859375 8.3359375 C2.05859375 6.3559375 2.05859375 4.3759375 2.05859375 2.3359375 C-0.91140625 2.3359375 -3.88140625 2.3359375 -6.94140625 2.3359375 C-6.94140625 4.6459375 -6.94140625 6.9559375 -6.94140625 9.3359375 C-8.94140625 8.3359375 -8.94140625 8.3359375 -9.75390625 6.5234375 C-9.94140625 4.3359375 -9.94140625 4.3359375 -9.06640625 2.0859375 C-6.09716321 -0.35932148 -3.74430003 -0.06148276 0 0 Z " fill="#BBB9C3" transform="translate(99.94140625,165.6640625)"/>
<path d="M0 0 C1.32 0.33 2.64 0.66 4 1 C4.33 2.65 4.66 4.3 5 6 C5.66 6 6.32 6 7 6 C7 5.34 7 4.68 7 4 C7.99 4.33 8.98 4.66 10 5 C10 5.99 10 6.98 10 8 C10.33 8.66 10.66 9.32 11 10 C10.34 10 9.68 10 9 10 C9 11.65 9 13.3 9 15 C6.31144122 12.61803125 4.92295354 10.16161182 3.375 6.9375 C2.94960938 6.05964844 2.52421875 5.18179688 2.0859375 4.27734375 C1.72757812 3.52582031 1.36921875 2.77429688 1 2 C0.67 1.34 0.34 0.68 0 0 Z " fill="#6E2B97" transform="translate(282,128)"/>
<path d="M0 0 C1.5625 1.8125 1.5625 1.8125 3 4 C2.67 4.99 2.34 5.98 2 7 C1.67 6.34 1.34 5.68 1 5 C-2.75194003 5.64924281 -6.1316451 6.70904363 -9.6875 8.0625 C-14.78291815 10 -14.78291815 10 -17 10 C-17 9.34 -17 8.68 -17 8 C-17.66 7.67 -18.32 7.34 -19 7 C-16 6 -16 6 -12.8125 5.625 C-8.47347592 4.91368458 -5.0347018 3.7390956 -1 2 C-0.67 1.34 -0.34 0.68 0 0 Z " fill="#9141B5" transform="translate(150,62)"/>
<path d="M0 0 C1.66611905 -0.042721 3.33382885 -0.04063832 5 0 C6 1 6 1 6.125 3.5 C6 6 6 6 5 7 C3.33382885 7.04063832 1.66611905 7.042721 0 7 C-1.125 2.25 -1.125 2.25 0 0 Z " fill="#D7D9E0" transform="translate(92,197)"/>
<path d="M0 0 C0.042721 1.66611905 0.04063832 3.33382885 0 5 C-1 6 -1 6 -3.5 6.125 C-6 6 -6 6 -7 5 C-7.04063832 3.33382885 -7.042721 1.66611905 -7 0 C-4.3333581 -1.33332095 -2.83319697 -0.67102033 0 0 Z " fill="#D1D3D9" transform="translate(191,86)"/>
<path d="M0 0 C7.15129696 1.87150963 13.49405457 4.49786342 20 8 C16.23348626 9.25550458 14.83488809 8.52671959 11.125 7.25 C10.09632813 6.90453125 9.06765625 6.5590625 8.0078125 6.203125 C5.0933041 5.03732164 2.57007178 3.80189534 0 2 C0 1.34 0 0.68 0 0 Z " fill="#6A2A91" transform="translate(232,58)"/>
<path d="M0 0 C1.02577148 0.00676758 1.02577148 0.00676758 2.07226562 0.01367188 C3.73571604 0.0253044 5.3991205 0.04323306 7.0625 0.0625 C2.75318938 2.86804077 -2.1410232 2.41723568 -7.09375 2.453125 C-10.71449914 2.57471732 -12.58699773 2.77662158 -15.4375 5.1015625 C-15.9325 5.74867188 -16.4275 6.39578125 -16.9375 7.0625 C-16.0625 2.1875 -16.0625 2.1875 -14.9375 1.0625 C-9.91968859 0.14842735 -5.0925386 -0.04506671 0 0 Z " fill="#C759E5" transform="translate(195.9375,306.9375)"/>
<path d="M0 0 C1.32 0 2.64 0 4 0 C4.33 1.98 4.66 3.96 5 6 C0.25 7.125 0.25 7.125 -2 6 C-1.125 1.125 -1.125 1.125 0 0 Z " fill="#DEDEE8" transform="translate(98,214)"/>
<path d="M0 0 C0.66 0.33 1.32 0.66 2 1 C-0.1778995 2.4952292 -2.36558945 3.97066712 -4.5625 5.4375 C-5.17158203 5.85837891 -5.78066406 6.27925781 -6.40820312 6.71289062 C-10.66910949 9.53095039 -13.89562783 10.63868665 -19 11 C-17.42299234 7.84598469 -14.24915466 6.97082505 -11.1875 5.5 C-10.55779297 5.19191406 -9.92808594 4.88382812 -9.27929688 4.56640625 C-7.52150966 3.70687966 -5.76084094 2.85325321 -4 2 C-3.23300781 1.5771875 -2.46601563 1.154375 -1.67578125 0.71875 C-1.12277344 0.4815625 -0.56976563 0.244375 0 0 Z " fill="#662A93" transform="translate(131,62)"/>
<path d="M0 0 C-0.50603992 2.16874252 -0.99983813 3.99967627 -2 6 C-4.375 6.125 -4.375 6.125 -7 6 C-7.66 5.34 -8.32 4.68 -9 4 C-9 3.01 -9 2.02 -9 1 C-5.94152152 0.45627049 -3.11227195 0 0 0 Z " fill="#5D2E82" transform="translate(263,118)"/>
<path d="M0 0 C1 3 1 3 0.29296875 4.90234375 C-0.25423828 5.90974609 -0.25423828 5.90974609 -0.8125 6.9375 C-1.16957031 7.60652344 -1.52664062 8.27554688 -1.89453125 8.96484375 C-2.25933594 9.63644531 -2.62414062 10.30804688 -3 11 C-3.67127626 12.33101856 -4.33931905 13.66369057 -5 15 C-5.99 15 -6.98 15 -8 15 C-7.35256333 11.17009294 -5.54688763 8.4716102 -3.4375 5.25 C-2.79683594 4.26515625 -2.15617187 3.2803125 -1.49609375 2.265625 C-1.00238281 1.51796875 -0.50867188 0.7703125 0 0 Z " fill="#6B2D98" transform="translate(73,110)"/>
<path d="M0 0 C4.15289097 3.67371124 7.23378258 8.22366459 10 13 C10 13.66 10 14.32 10 15 C6.47046282 13.82348761 6.21263506 13.11622456 4.4375 10 C2.78625452 6.91497173 2.78625452 6.91497173 0 5 C0 3.35 0 1.7 0 0 Z " fill="#6D2B93" transform="translate(296,103)"/>
<path d="M0 0 C0 1.65 0 3.3 0 5 C-2.375 5.625 -2.375 5.625 -5 6 C-5.66 5.34 -6.32 4.68 -7 4 C-6.75 1.9375 -6.75 1.9375 -6 0 C-3.50907189 -1.24546405 -2.58919267 -0.7767578 0 0 Z " fill="#C7C9D0" transform="translate(273,229)"/>
<path d="M0 0 C1.35814777 4.0744433 -0.05254238 6.81468116 -1.4375 10.6875 C-1.68048828 11.38939453 -1.92347656 12.09128906 -2.17382812 12.81445312 C-2.7744944 14.54578532 -3.38619719 16.27328137 -4 18 C-4.33 18 -4.66 18 -5 18 C-4.74319906 10.89945397 -4.06612857 5.90244471 0 0 Z " fill="#6E2B93" transform="translate(82,145)"/>
<path d="M0 0 C1.32 0 2.64 0 4 0 C5.125 4.75 5.125 4.75 4 7 C2.68 6.67 1.36 6.34 0 6 C-0.38218767 4.34385343 -0.71395102 2.67542976 -1 1 C-0.67 0.67 -0.34 0.34 0 0 Z " fill="#3E1F63" transform="translate(112,118)"/>
<path d="M0 0 C4.95442666 1.16574745 8.30242333 2.30242333 12 6 C12.71064195 7.64839627 13.38409164 9.31391604 14 11 C12.49460339 10.05016642 10.99579653 9.08988109 9.5 8.125 C8.6646875 7.59132813 7.829375 7.05765625 6.96875 6.5078125 C5.99421875 5.76144531 5.99421875 5.76144531 5 5 C5 4.34 5 3.68 5 3 C2.525 2.01 2.525 2.01 0 1 C0 0.67 0 0.34 0 0 Z " fill="#622789" transform="translate(250,95)"/>
<path d="M0 0 C-6.93 3.465 -6.93 3.465 -14 7 C-14 6.01 -14 5.02 -14 4 C-12.68 4 -11.36 4 -10 4 C-9.7525 3.360625 -9.505 2.72125 -9.25 2.0625 C-8 0 -8 0 -6.125 -0.8125 C-4 -1 -4 -1 0 0 Z " fill="#712B9B" transform="translate(256,307)"/>
<path d="M0 0 C4.9723422 1.49170266 9.41845739 3.60457417 14 6 C14 6.33 14 6.66 14 7 C9.45228087 7.42634867 4.88578696 6.43315632 1 4 C0.265625 1.890625 0.265625 1.890625 0 0 Z " fill="#622685" transform="translate(131,284)"/>
<path d="M0 0 C3.74633486 1.24877829 5.41041797 3.06047445 8 6 C8 6.99 8 7.98 8 9 C5.36 8.67 2.72 8.34 0 8 C0.66 7.01 1.32 6.02 2 5 C1.34 4.34 0.68 3.68 0 3 C0 2.01 0 1.02 0 0 Z " fill="#2B1C43" transform="translate(258,235)"/>
<path d="M0 0 C2.30259931 2.85839915 3.86268345 5.60418038 5.25 9 C5.60578125 9.845625 5.9615625 10.69125 6.328125 11.5625 C7.05204912 14.18882935 6.9128421 15.47212957 6 18 C3 11.25 3 11.25 3 9 C2.34 9 1.68 9 1 9 C0.67 6.03 0.34 3.06 0 0 Z " fill="#6F2C91" transform="translate(311,127)"/>
<path d="M0 0 C1.65 0 3.3 0 5 0 C5.625 1.875 5.625 1.875 6 4 C5.34 4.66 4.68 5.32 4 6 C1.875 5.625 1.875 5.625 0 5 C0 3.35 0 1.7 0 0 Z " fill="#C8C8D2" transform="translate(125,261)"/>
<path d="M0 0 C2.1875 -0.375 2.1875 -0.375 5 0 C6.99022836 1.83961648 8.38989899 3.79186148 10 6 C9.4225 5.690625 8.845 5.38125 8.25 5.0625 C6.15705816 4.07416636 4.25464725 3.4831387 2 3 C2 4.65 2 6.3 2 8 C0.4375 6.8125 0.4375 6.8125 -1 5 C-0.6875 2.3125 -0.6875 2.3125 0 0 Z " fill="#D8DAE2" transform="translate(222,250)"/>
<path d="M0 0 C1.67542976 0.28604898 3.34385343 0.61781233 5 1 C4.3125 2.9375 4.3125 2.9375 3 5 C0.375 5.75 0.375 5.75 -2 6 C-1.125 1.125 -1.125 1.125 0 0 Z " fill="#2C1949" transform="translate(104,130)"/>
<path d="M0 0 C1.32 0 2.64 0 4 0 C4.33 2.31 4.66 4.62 5 7 C4.01 7.33 3.02 7.66 2 8 C0 6 0 6 -1 4 C-0.5625 1.875 -0.5625 1.875 0 0 Z " fill="#8D2DBC" transform="translate(84,125)"/>
<path d="M0 0 C0.66 0.33 1.32 0.66 2 1 C0.71937515 2.7074998 -0.61767557 4.37373596 -2 6 C-2.66 6 -3.32 6 -4 6 C-4.33 6.99 -4.66 7.98 -5 9 C-6.32 9 -7.64 9 -9 9 C-9 9.66 -9 10.32 -9 11 C-9.66 11 -10.32 11 -11 11 C-9.86280581 7.58841744 -8.95657056 6.88145399 -6 5 C-5.34 5 -4.68 5 -4 5 C-4 4.34 -4 3.68 -4 3 C-2 1.375 -2 1.375 0 0 Z " fill="#642A84" transform="translate(103,78)"/>
<path d="M0 0 C3.3 0 6.6 0 10 0 C7.35493484 1.76337678 5.40786033 2.6560851 2.4375 3.625 C1.25994141 4.01558594 1.25994141 4.01558594 0.05859375 4.4140625 C-2 5 -2 5 -4 5 C-4 4.34 -4 3.68 -4 3 C-3.01 2.67 -2.02 2.34 -1 2 C-0.67 1.34 -0.34 0.68 0 0 Z " fill="#712896" transform="translate(231,314)"/>
<path d="M0 0 C1.46300982 0.93018526 2.92025579 1.86944027 4.375 2.8125 C5.18710938 3.33457031 5.99921875 3.85664063 6.8359375 4.39453125 C9 6 9 6 11 9 C7.5625 8.1875 7.5625 8.1875 4 7 C3.67 6.01 3.34 5.02 3 4 C2.01 4 1.02 4 0 4 C0 2.68 0 1.36 0 0 Z " fill="#66268D" transform="translate(112,270)"/>
<path d="M0 0 C1.65 0 3.3 0 5 0 C5.66 1.32 6.32 2.64 7 4 C6.01 5.485 6.01 5.485 5 7 C4.01 6.67 3.02 6.34 2 6 C0.8125 2.9375 0.8125 2.9375 0 0 Z " fill="#DADBE0" transform="translate(134,237)"/>
<path d="M0 0 C2.375 -0.125 2.375 -0.125 5 0 C5.66 0.66 6.32 1.32 7 2 C9.06874034 2.6425235 9.06874034 2.6425235 11 3 C11 3.66 11 4.32 11 5 C11.99 5 12.98 5 14 5 C14 5.66 14 6.32 14 7 C8.70139194 5.7023817 4.65474354 3.84984298 0 1 C0 0.67 0 0.34 0 0 Z " fill="#622B86" transform="translate(118,306)"/>
<path d="M0 0 C1.27350058 3.01009228 0.99687398 4.00781505 -0.25 7.125 C-2 10 -2 10 -5 12 C-4.52389341 7.00088076 -2.96837781 4.02167317 0 0 Z " fill="#752E9B" transform="translate(287,239)"/>
<path d="M0 0 C0 0.99 0 1.98 0 3 C-1.41377782 3.36552803 -2.83120576 3.71695495 -4.25 4.0625 C-5.03890625 4.25972656 -5.8278125 4.45695312 -6.640625 4.66015625 C-9.10394822 5.01497267 -10.65604132 4.76877544 -13 4 C-11.58774074 3.32404685 -10.16997095 2.65959941 -8.75 2 C-7.56664062 1.443125 -7.56664062 1.443125 -6.359375 0.875 C-4 0 -4 0 0 0 Z " fill="#632789" transform="translate(237,288)"/>
<path d="M0 0 C1.32 0.33 2.64 0.66 4 1 C-1.445 4.96 -1.445 4.96 -7 9 C-7.66 8.67 -8.32 8.34 -9 8 C-8 5 -8 5 -6.15234375 3.83203125 C-5.42144531 3.49558594 -4.69054687 3.15914063 -3.9375 2.8125 C-3.20402344 2.46832031 -2.47054687 2.12414062 -1.71484375 1.76953125 C-1.14894531 1.51558594 -0.58304688 1.26164062 0 1 C0 0.67 0 0.34 0 0 Z " fill="#6C2B94" transform="translate(125,92)"/>
<path d="M0 0 C4 4.75 4 4.75 4 7 C0.85375007 7.26218749 -0.61837017 7.24754367 -3.3125 5.5 C-3.869375 5.005 -4.42625 4.51 -5 4 C-4.01 4 -3.02 4 -2 4 C-1.34 2.68 -0.68 1.36 0 0 Z " fill="#3E225A" transform="translate(257,235)"/>
<path d="M0 0 C4.43458973 1.3937282 6.87378374 3.60582235 10 7 C7.69 7 5.38 7 3 7 C2.67 5.35 2.34 3.7 2 2 C1.34 2 0.68 2 0 2 C0 1.34 0 0.68 0 0 Z " fill="#6B2897" transform="translate(268,77)"/>
<path d="M0 0 C1.32 0.33 2.64 0.66 4 1 C2.37829621 2.00533667 0.75252763 3.00411907 -0.875 4 C-2.23238281 4.8353125 -2.23238281 4.8353125 -3.6171875 5.6875 C-6 7 -6 7 -8 7 C-8 5 -8 5 -6 3 C-6 2.67 -6 2.34 -6 2 C-4.02 2 -2.04 2 0 2 C0 1.34 0 0.68 0 0 Z " fill="#9043B4" transform="translate(128,72)"/>
<path d="M0 0 C1.65 0.33 3.3 0.66 5 1 C4.67 2.32 4.34 3.64 4 5 C2.68 5 1.36 5 0 5 C-0.33 4.01 -0.66 3.02 -1 2 C-0.67 1.34 -0.34 0.68 0 0 Z " fill="#875A9E" transform="translate(245,261)"/>
<path d="M0 0 C0 0.99 0 1.98 0 3 C-1.65 3 -3.3 3 -5 3 C-5 3.99 -5 4.98 -5 6 C-6.32 6 -7.64 6 -9 6 C-7.34548768 1.03646304 -5.15148826 0 0 0 Z " fill="#8F30BB" transform="translate(116,239)"/>
<path d="M0 0 C-2.85584773 1.90389849 -4.9311762 2.69462177 -8.1875 3.625 C-9.08855469 3.88539062 -9.98960937 4.14578125 -10.91796875 4.4140625 C-11.94857422 4.70410156 -11.94857422 4.70410156 -13 5 C-13 4.34 -13 3.68 -13 3 C-12.01 3 -11.02 3 -10 3 C-10 2.34 -10 1.68 -10 1 C-6.78548731 -0.60725635 -3.56387464 -0.05748185 0 0 Z " fill="#732F98" transform="translate(157,80)"/>
<path d="M0 0 C0.70125 0.721875 1.4025 1.44375 2.125 2.1875 C4.92770745 4.99823813 7.92262792 7.49516226 11 10 C10.01 10.33 9.02 10.66 8 11 C2.19794344 5.35475578 2.19794344 5.35475578 0 2 C0 1.34 0 0.68 0 0 Z " fill="#552072" transform="translate(101,259)"/>
<path d="M0 0 C0 0.99 0 1.98 0 3 C-4.75 4.125 -4.75 4.125 -7 3 C-6.67 2.01 -6.34 1.02 -6 0 C-3 -1 -3 -1 0 0 Z " fill="#8131AF" transform="translate(123,235)"/>
<path d="M0 0 C-1.28965176 1.37562854 -2.62689293 2.70766393 -4 4 C-4.66 4 -5.32 4 -6 4 C-6 3.34 -6 2.68 -6 2 C-8.31 2 -10.62 2 -13 2 C-8.73059252 -0.4631197 -4.74855345 -1.58285115 0 0 Z " fill="#7F2CA8" transform="translate(231,293)"/>
<path d="M0 0 C2 0 2 0 3.5 1.1875 C5.3194209 3.38596692 6.19852386 5.26162318 7 8 C6.67 9.32 6.34 10.64 6 12 C4.02 8.04 2.04 4.08 0 0 Z " fill="#642990" transform="translate(63,248)"/>
<path d="M0 0 C1.12377697 3.30435084 0.89554742 5.0506862 -0.4375 8.25 C-0.72496094 8.95640625 -1.01242188 9.6628125 -1.30859375 10.390625 C-1.53675781 10.92171875 -1.76492187 11.4528125 -2 12 C-2.66 12 -3.32 12 -4 12 C-3.52494322 10.18641846 -3.04483958 8.37415821 -2.5625 6.5625 C-2.29566406 5.55316406 -2.02882812 4.54382813 -1.75390625 3.50390625 C-1 1 -1 1 0 0 Z " fill="#6E3094" transform="translate(59,137)"/>
<path d="M0 0 C0 3.38023517 -0.87455622 5.83468937 -2 9 C-3.65 9 -5.3 9 -7 9 C-6.02180976 7.68677212 -5.0424189 6.37443848 -4.0625 5.0625 C-3.51722656 4.33160156 -2.97195312 3.60070312 -2.41015625 2.84765625 C-1 1 -1 1 0 0 Z " fill="#924BB6" transform="translate(99,104)"/>
<path d="M0 0 C3.96 0 7.92 0 12 0 C12 0.33 12 0.66 12 1 C2.58997722 3.29612756 2.58997722 3.29612756 -2 3 C-1.34 2.67 -0.68 2.34 0 2 C0 1.34 0 0.68 0 0 Z " fill="#682A8E" transform="translate(160,77)"/>
<path d="M0 0 C-2.97 1.65 -5.94 3.3 -9 5 C-9 4.01 -9 3.02 -9 2 C-5.3823098 -0.81375904 -4.61553765 -1.15388441 0 0 Z " fill="#7B2DA0" transform="translate(269,299)"/>
<path d="M0 0 C2.64 0 5.28 0 8 0 C7.67 0.99 7.34 1.98 7 3 C5.68 3 4.36 3 3 3 C2.34 3.66 1.68 4.32 1 5 C0.67 3.35 0.34 1.7 0 0 Z " fill="#A7A7AD" transform="translate(143,232)"/>
<path d="M0 0 C1.32 0 2.64 0 4 0 C4 1.65 4 3.3 4 5 C2.35 4.67 0.7 4.34 -1 4 C-0.67 2.68 -0.34 1.36 0 0 Z " fill="#D0D0DD" transform="translate(103,229)"/>
<path d="M0 0 C0.33 0 0.66 0 1 0 C1.19392201 5.52677733 0.7479503 9.75614911 -1 15 C-1.33 15 -1.66 15 -2 15 C-2.19392201 9.47322267 -1.7479503 5.24385089 0 0 Z " fill="#77339F" transform="translate(52,168)"/>
<path d="M0 0 C0.66 0.33 1.32 0.66 2 1 C-3.75 4.875 -3.75 4.875 -6 6 C-8.01927511 5.39421747 -10.02253397 4.73080266 -12 4 C-11.34 3.01 -10.68 2.02 -10 1 C-9.67 1.66 -9.34 2.32 -9 3 C-6.35940606 2.55990101 -4.20426133 2.10504868 -1.8125 0.875 C-1.214375 0.58625 -0.61625 0.2975 0 0 Z " fill="#B8BACD" transform="translate(267,151)"/>
<path d="M0 0 C1.13199353 0.9080162 2.25532363 1.82683826 3.375 2.75 C4.00148438 3.26046875 4.62796875 3.7709375 5.2734375 4.296875 C7.08312318 6.08199481 8.00117455 7.67949644 9 10 C1.31509847 5.88621444 1.31509847 5.88621444 0 2.1875 C0 1.465625 0 0.74375 0 0 Z " fill="#6E2C93" transform="translate(282,88)"/>
<path d="M0 0 C0.99 0 1.98 0 3 0 C3 0.66 3 1.32 3 2 C3.99 2 4.98 2 6 2 C5.34 3.32 4.68 4.64 4 6 C3.34 6 2.68 6 2 6 C0 3 0 3 0 0 Z " fill="#872AAB" transform="translate(295,263)"/>
<path d="M0 0 C0.66 0 1.32 0 2 0 C1.67 1.65 1.34 3.3 1 5 C0.67 5 0.34 5 0 5 C0 3.35 0 1.7 0 0 Z M-3 5 C-2.01 5.33 -1.02 5.66 0 6 C-0.33 6.99 -0.66 7.98 -1 9 C-1.99 9 -2.98 9 -4 9 C-4.33 9.99 -4.66 10.98 -5 12 C-4.125 7.25 -4.125 7.25 -3 5 Z " fill="#772FA4" transform="translate(293,227)"/>
<path d="M0 0 C3.14958831 3.42346555 3.56179109 6.44262737 4 11 C1 9 1 9 0.48828125 6.8359375 C0.43027344 6.02382812 0.37226562 5.21171875 0.3125 4.375 C0.24675781 3.55773437 0.18101563 2.74046875 0.11328125 1.8984375 C0.07589844 1.27195313 0.03851563 0.64546875 0 0 Z " fill="#6B2B8B" transform="translate(80,223)"/>
<path d="M0 0 C2.26562673 2.26562673 2.94462749 3.84160705 3.09765625 7.04296875 C3.06510417 9.02864583 3.03255208 11.01432292 3 13 C0.89172945 9.83759418 0.66182535 8.49342531 0.375 4.8125 C0.30023438 3.91144531 0.22546875 3.01039063 0.1484375 2.08203125 C0.09945312 1.39496094 0.05046875 0.70789063 0 0 Z " fill="#6E3295" transform="translate(51,206)"/>
<path d="M0 0 C2.31 0 4.62 0 7 0 C6.8125 1.8125 6.8125 1.8125 6 4 C3.4375 5.75 3.4375 5.75 1 7 C1 6.34 1 5.68 1 5 C1.66 4.67 2.32 4.34 3 4 C3.33 3.01 3.66 2.02 4 1 C2.68 0.67 1.36 0.34 0 0 Z " fill="#2E1845" transform="translate(146,95)"/>
<path d="M0 0 C-0.69867188 0.27714844 -1.39734375 0.55429687 -2.1171875 0.83984375 C-3.02726563 1.20207031 -3.93734375 1.56429687 -4.875 1.9375 C-5.77992188 2.29714844 -6.68484375 2.65679687 -7.6171875 3.02734375 C-9.96137667 3.94901262 -9.96137667 3.94901262 -12 5 C-12.66 4.34 -13.32 3.68 -14 3 C-12.42274653 2.29866401 -10.83788667 1.614417 -9.25 0.9375 C-7.92742187 0.36322266 -7.92742187 0.36322266 -6.578125 -0.22265625 C-3.84743691 -1.04600008 -2.63098653 -0.9773992 0 0 Z " fill="#672A89" transform="translate(147,58)"/>
<path d="M0 0 C1.32 0.33 2.64 0.66 4 1 C4 1.66 4 2.32 4 3 C4.99 3 5.98 3 7 3 C7.33 4.32 7.66 5.64 8 7 C4.2047869 5.50902342 2.38957269 3.24299151 0 0 Z " fill="#6C2F95" transform="translate(87,282)"/>
<path d="M0 0 C2.97 0.495 2.97 0.495 6 1 C6 2.32 6 3.64 6 5 C4.68 5 3.36 5 2 5 C2.33 3.68 2.66 2.36 3 1 C2.01 0.67 1.02 0.34 0 0 Z " fill="#D262EA" transform="translate(210,66)"/>
<path d="M0 0 C0.763125 0.061875 1.52625 0.12375 2.3125 0.1875 C2.6425 1.1775 2.9725 2.1675 3.3125 3.1875 C0.3425 3.1875 -2.6275 3.1875 -5.6875 3.1875 C-2.6875 0.1875 -2.6875 0.1875 0 0 Z " fill="#E273F1" transform="translate(166.6875,65.8125)"/>
<path d="M0 0 C0.66 0 1.32 0 2 0 C2 1.65 2 3.3 2 5 C0.35 5 -1.3 5 -3 5 C-1.125 1.125 -1.125 1.125 0 0 Z " fill="#F9FAFA" transform="translate(142,267)"/>
<path d="M0 0 C2.64 0 5.28 0 8 0 C8.33 1.65 8.66 3.3 9 5 C8.01 5.495 8.01 5.495 7 6 C6.67 4.68 6.34 3.36 6 2 C3.03 1.505 3.03 1.505 0 1 C0 0.67 0 0.34 0 0 Z " fill="#593178" transform="translate(116,233)"/>
<path d="M0 0 C0.66 0 1.32 0 2 0 C3.125 3.75 3.125 3.75 2 6 C1.01 6 0.02 6 -1 6 C-1.042721 4.33388095 -1.04063832 2.66617115 -1 1 C-0.67 0.67 -0.34 0.34 0 0 Z " fill="#311E50" transform="translate(283,208)"/>
<path d="M0 0 C2.4375 0.6875 2.4375 0.6875 5 2 C5.8125 4.625 5.8125 4.625 6 7 C5.01 7.66 4.02 8.32 3 9 C3 6.69 3 4.38 3 2 C2.01 1.67 1.02 1.34 0 1 C0 0.67 0 0.34 0 0 Z " fill="#A5A7B2" transform="translate(264,163)"/>
<path d="M0 0 C0.99 0 1.98 0 3 0 C2.67 1.65 2.34 3.3 2 5 C0.68 4.67 -0.64 4.34 -2 4 C-1.34 2.68 -0.68 1.36 0 0 Z " fill="#6A488C" transform="translate(98,140)"/>
<path d="M0 0 C0.33 0.99 0.66 1.98 1 3 C-0.21484375 4.82421875 -0.21484375 4.82421875 -1.9375 6.6875 C-2.50339844 7.31011719 -3.06929688 7.93273437 -3.65234375 8.57421875 C-4.09707031 9.04472656 -4.54179688 9.51523438 -5 10 C-5.66 9.67 -6.32 9.34 -7 9 C-4.69 6.03 -2.38 3.06 0 0 Z " fill="#EFDCF4" transform="translate(85,111)"/>
<path d="M0 0 C3.79588866 0.54226981 5.47211993 2.20127563 8 5 C7.67 5.66 7.34 6.32 7 7 C5.83040013 6.02433888 4.66438823 5.044375 3.5 4.0625 C2.8503125 3.51722656 2.200625 2.97195312 1.53125 2.41015625 C1.0259375 1.94480469 0.520625 1.47945313 0 1 C0 0.67 0 0.34 0 0 Z " fill="#69258D" transform="translate(264,106)"/>
<path d="M0 0 C1.32 0 2.64 0 4 0 C4 1.32 4 2.64 4 4 C2.35 4 0.7 4 -1 4 C-0.67 2.68 -0.34 1.36 0 0 Z " fill="#512571" transform="translate(139,99)"/>
<path d="M0 0 C0.33 1.32 0.66 2.64 1 4 C-3.625 7 -3.625 7 -7 7 C-4.69 4.69 -2.38 2.38 0 0 Z " fill="#5A247B" transform="translate(272,260)"/>
<path d="M0 0 C0.66 0.33 1.32 0.66 2 1 C1.67 1.33 1.34 1.66 1 2 C0.63239269 4.32817964 0.29758419 6.6618385 0 9 C-2 8 -2 8 -2.8125 6.1875 C-3 4 -3 4 -1.5625 1.75 C-1.046875 1.1725 -0.53125 0.595 0 0 Z " fill="#835C97" transform="translate(93,166)"/>
<path d="M0 0 C2 3 2 3 1.7578125 5.48046875 C1.54898438 6.37378906 1.34015625 7.26710937 1.125 8.1875 C0.92132813 9.08855469 0.71765625 9.98960937 0.5078125 10.91796875 C0.34023438 11.60503906 0.17265625 12.29210937 0 13 C-0.33 13 -0.66 13 -1 13 C-1.02696365 11.20841511 -1.04637917 9.41671527 -1.0625 7.625 C-1.07410156 6.62726563 -1.08570313 5.62953125 -1.09765625 4.6015625 C-1 2 -1 2 0 0 Z " fill="#9148AE" transform="translate(61,156)"/>
<path d="M0 0 C0 3.57575896 -1.08840607 5.05295935 -3 8 C-3.99 7.67 -4.98 7.34 -6 7 C-4.02 4.69 -2.04 2.38 0 0 Z " fill="#6C2D95" transform="translate(85,95)"/>
<path d="M0 0 C1.32 0.33 2.64 0.66 4 1 C3.67 2.32 3.34 3.64 3 5 C2.01 5 1.02 5 0 5 C0 3.35 0 1.7 0 0 Z " fill="#C6C5D1" transform="translate(208,89)"/>
<path d="M0 0 C-0.33 0.66 -0.66 1.32 -1 2 C-2.32 2 -3.64 2 -5 2 C-5 2.66 -5 3.32 -5 4 C-5.99 4 -6.98 4 -8 4 C-8 3.01 -8 2.02 -8 1 C-5.07175348 0.02391783 -3.04386724 -0.08226668 0 0 Z " fill="#782FA2" transform="translate(166,91)"/>
<path d="M0 0 C3.37503669 1.1858237 5.64722731 2.27573689 8 5 C4.5625 4.1875 4.5625 4.1875 1 3 C0.67 2.01 0.34 1.02 0 0 Z " fill="#54237B" transform="translate(123,279)"/>
<path d="M0 0 C0.33 0.66 0.66 1.32 1 2 C1.66 2.33 2.32 2.66 3 3 C2.34 3 1.68 3 1 3 C0.71125 3.61875 0.4225 4.2375 0.125 4.875 C-1 7 -1 7 -3 9 C-2.44271087 5.65626525 -1.64826111 2.96687001 0 0 Z " fill="#6F2A8F" transform="translate(296,267)"/>
<path d="M0 0 C0.66 0.99 1.32 1.98 2 3 C-0.375 4.5625 -0.375 4.5625 -3 6 C-3.66 5.67 -4.32 5.34 -5 5 C-3.35 3.35 -1.7 1.7 0 0 Z " fill="#C7C7CF" transform="translate(132,239)"/>
<path d="M0 0 C-0.33 1.32 -0.66 2.64 -1 4 C-2.32 4 -3.64 4 -5 4 C-5 3.01 -5 2.02 -5 1 C-3 0 -3 0 0 0 Z " fill="#702497" transform="translate(263,118)"/>
<path d="M0 0 C0.66 0 1.32 0 2 0 C2 0.66 2 1.32 2 2 C2.66 2.33 3.32 2.66 4 3 C2.68 4.32 1.36 5.64 0 7 C-0.38133299 5.0085944 -0.71325582 3.00720923 -1 1 C-0.67 0.67 -0.34 0.34 0 0 Z " fill="#6E2898" transform="translate(99,112)"/>
<path d="M0 0 C0.66 0 1.32 0 2 0 C1.8125 1.875 1.8125 1.875 1 4 C-1.5625 5.25 -1.5625 5.25 -4 6 C-3.67 5.01 -3.34 4.02 -3 3 C-2.34 3 -1.68 3 -1 3 C-0.67 2.01 -0.34 1.02 0 0 Z " fill="#6C28A4" transform="translate(90,89)"/>
<path d="M0 0 C1.32 0.33 2.64 0.66 4 1 C3.67 2.32 3.34 3.64 3 5 C2.01 4.34 1.02 3.68 0 3 C0 2.01 0 1.02 0 0 Z " fill="#754A99" transform="translate(274,140)"/>
<path d="M0 0 C1.65 0 3.3 0 5 0 C5 0.99 5 1.98 5 3 C3.35 2.67 1.7 2.34 0 2 C0 1.34 0 0.68 0 0 Z " fill="#503477" transform="translate(198,88)"/>
<path d="M0 0 C0.99 0.33 1.98 0.66 3 1 C3 1.99 3 2.98 3 4 C2.01 4 1.02 4 0 4 C0 2.68 0 1.36 0 0 Z " fill="#6B3F8F" transform="translate(279,148)"/>
<path d="M0 0 C0.99 0.33 1.98 0.66 3 1 C2.01 1.33 1.02 1.66 0 2 C0 1.34 0 0.68 0 0 Z " fill="#393153" transform="translate(173,88)"/>
<path d="M0 0 C0.66 0 1.32 0 2 0 C2 0.66 2 1.32 2 2 C1.34 2 0.68 2 0 2 C0 1.34 0 0.68 0 0 Z " fill="#2C2946" transform="translate(250,111)"/>
<path d="" fill="#49246D" transform="translate(0,0)"/>
</svg>
