<?xml version="1.0" encoding="UTF-8"?>
<!DOCTYPE svg PUBLIC "-//W3C//DTD SVG 1.1//EN" "http://www.w3.org/Graphics/SVG/1.1/DTD/svg11.dtd">
<svg xmlns="http://www.w3.org/2000/svg" version="1.1" width="500px" height="500px" style="shape-rendering:geometricPrecision; text-rendering:geometricPrecision; image-rendering:optimizeQuality; fill-rule:evenodd; clip-rule:evenodd" xmlns:xlink="http://www.w3.org/1999/xlink">
<g><path style="opacity:1" fill="#578a32" d="M 273.5,1.5 C 277.575,3.967 279.908,7.63367 280.5,12.5C 275.865,40.9142 272.198,69.5809 269.5,98.5C 266.625,108.497 265.291,118.83 265.5,129.5C 263.908,145.234 261.908,160.901 259.5,176.5C 257.918,179.876 257.251,183.542 257.5,187.5C 304.167,187.5 350.833,187.5 397.5,187.5C 399.363,189.162 401.363,190.829 403.5,192.5C 403.665,195.518 403.498,198.518 403,201.5C 400.676,204.48 399.176,207.813 398.5,211.5C 395.865,214.079 393.699,217.079 392,220.5C 390.991,222.025 390.491,223.692 390.5,225.5C 390.672,226.492 390.338,227.158 389.5,227.5C 388.094,227.973 387.427,228.973 387.5,230.5C 380.923,243.994 373.59,256.994 365.5,269.5C 363.75,270.659 362.75,272.326 362.5,274.5C 362.5,274.833 362.5,275.167 362.5,275.5C 359.862,277.418 358.195,280.085 357.5,283.5C 357.5,283.833 357.5,284.167 357.5,284.5C 354.917,285.985 353.584,288.318 353.5,291.5C 350.917,292.985 349.584,295.318 349.5,298.5C 349.672,299.492 349.338,300.158 348.5,300.5C 346.259,301.3 345.259,302.966 345.5,305.5C 345.672,306.492 345.338,307.158 344.5,307.5C 340.997,309.824 338.997,313.157 338.5,317.5C 336.561,322.09 334.227,326.423 331.5,330.5C 330.094,330.973 329.427,331.973 329.5,333.5C 329.008,335.819 328.008,337.819 326.5,339.5C 325.094,339.973 324.427,340.973 324.5,342.5C 324.34,344.153 323.674,345.486 322.5,346.5C 321.094,346.973 320.427,347.973 320.5,349.5C 320.008,351.819 319.008,353.819 317.5,355.5C 314.58,357.662 312.913,360.662 312.5,364.5C 309.917,365.985 308.584,368.318 308.5,371.5C 308.672,372.492 308.338,373.158 307.5,373.5C 305.259,374.3 304.259,375.966 304.5,378.5C 304.672,379.492 304.338,380.158 303.5,380.5C 301.259,381.3 300.259,382.966 300.5,385.5C 298.003,391.165 295.003,396.498 291.5,401.5C 289.75,402.659 288.75,404.326 288.5,406.5C 288.34,408.153 287.674,409.486 286.5,410.5C 285.094,410.973 284.427,411.973 284.5,413.5C 284.008,415.819 283.008,417.819 281.5,419.5C 280.094,419.973 279.427,420.973 279.5,422.5C 279.34,424.153 278.674,425.486 277.5,426.5C 275.75,427.659 274.75,429.326 274.5,431.5C 274.34,433.153 273.674,434.486 272.5,435.5C 269.917,436.985 268.584,439.318 268.5,442.5C 268.34,444.153 267.674,445.486 266.5,446.5C 264.259,447.3 263.259,448.966 263.5,451.5C 258.1,461.967 252.433,472.3 246.5,482.5C 244.554,483.035 243.554,484.368 243.5,486.5C 243.34,488.153 242.674,489.486 241.5,490.5C 240.094,490.973 239.427,491.973 239.5,493.5C 238.461,495.531 236.795,496.864 234.5,497.5C 228.56,498.032 224.227,495.698 221.5,490.5C 225.016,458.192 228.016,425.859 230.5,393.5C 231.936,387.053 232.603,380.386 232.5,373.5C 232.5,372.5 232.5,371.5 232.5,370.5C 234.078,365.417 234.745,360.084 234.5,354.5C 235.321,340.443 236.655,326.443 238.5,312.5C 192.832,312.667 147.165,312.5 101.5,312C 100.584,311.722 99.9175,311.222 99.5,310.5C 98.5977,308.659 97.2644,307.326 95.5,306.5C 94.596,305.791 94.2627,304.791 94.5,303.5C 96.7205,296.627 99.3872,289.96 102.5,283.5C 103.906,283.027 104.573,282.027 104.5,280.5C 104.328,279.508 104.662,278.842 105.5,278.5C 107.408,277.514 108.408,275.848 108.5,273.5C 110.104,272.713 110.771,271.38 110.5,269.5C 111.906,269.027 112.573,268.027 112.5,266.5C 113.906,266.027 114.573,265.027 114.5,263.5C 114.66,261.847 115.326,260.514 116.5,259.5C 117.906,259.027 118.573,258.027 118.5,256.5C 119.774,253.24 121.44,250.24 123.5,247.5C 126.135,244.921 128.301,241.921 130,238.5C 131.411,236.35 132.245,234.016 132.5,231.5C 135.083,230.015 136.416,227.682 136.5,224.5C 143.687,215.469 149.354,205.469 153.5,194.5C 154.906,194.027 155.573,193.027 155.5,191.5C 156.079,188.669 157.412,186.336 159.5,184.5C 161.25,183.341 162.25,181.674 162.5,179.5C 162.328,178.508 162.662,177.842 163.5,177.5C 165.25,176.341 166.25,174.674 166.5,172.5C 166.328,171.508 166.662,170.842 167.5,170.5C 169.25,169.341 170.25,167.674 170.5,165.5C 170.328,164.508 170.662,163.842 171.5,163.5C 174.786,160.6 176.786,156.933 177.5,152.5C 178.906,152.027 179.573,151.027 179.5,149.5C 181.104,148.713 181.771,147.38 181.5,145.5C 182.906,145.027 183.573,144.027 183.5,142.5C 187.782,137.311 191.616,131.644 195,125.5C 195.49,124.207 195.657,122.873 195.5,121.5C 196.41,118.008 198.076,115.008 200.5,112.5C 202.25,111.341 203.25,109.674 203.5,107.5C 205.25,106.341 206.25,104.674 206.5,102.5C 206.328,101.508 206.662,100.842 207.5,100.5C 209.25,99.3406 210.25,97.674 210.5,95.5C 210.328,94.5084 210.662,93.8417 211.5,93.5C 213.25,92.3406 214.25,90.674 214.5,88.5C 215.41,85.0078 217.076,82.0078 219.5,79.5C 221.588,77.6644 222.921,75.3311 223.5,72.5C 224.079,69.6689 225.412,67.3356 227.5,65.5C 230.146,61.5487 233.146,57.7153 236.5,54C 235.748,53.3292 235.414,52.4959 235.5,51.5C 237.664,46.4997 240.331,41.833 243.5,37.5C 245.588,35.6644 246.921,33.3311 247.5,30.5C 250.623,27.0242 252.957,23.0242 254.5,18.5C 256.588,16.6644 257.921,14.3311 258.5,11.5C 260.456,8.46109 262.79,5.62776 265.5,3C 268.014,1.74751 270.68,1.24751 273.5,1.5 Z"/></g>
<g><path style="opacity:0.663" fill="#606a58" d="M 273.5,1.5 C 278.35,2.63781 281.016,5.80447 281.5,11C 281.43,11.7648 281.097,12.2648 280.5,12.5C 279.908,7.63367 277.575,3.967 273.5,1.5 Z"/></g>
<g><path style="opacity:0.745" fill="#4a5342" d="M 273.5,1.5 C 270.68,1.24751 268.014,1.74751 265.5,3C 262.79,5.62776 260.456,8.46109 258.5,11.5C 260.504,3.10084 265.504,-0.232492 273.5,1.5 Z"/></g>
<g><path style="opacity:0.714" fill="#55604c" d="M 258.5,11.5 C 257.921,14.3311 256.588,16.6644 254.5,18.5C 255.079,15.6689 256.412,13.3356 258.5,11.5 Z"/></g>
<g><path style="opacity:0.592" fill="#78856e" d="M 280.5,12.5 C 277.561,41.3936 273.894,70.0603 269.5,98.5C 272.198,69.5809 275.865,40.9142 280.5,12.5 Z"/></g>
<g><path style="opacity:0.886" fill="#5a684e" d="M 254.5,18.5 C 252.957,23.0242 250.623,27.0242 247.5,30.5C 249.043,25.9758 251.377,21.9758 254.5,18.5 Z"/></g>
<g><path style="opacity:1" fill="#5d6d4f" d="M 247.5,30.5 C 246.921,33.3311 245.588,35.6644 243.5,37.5C 244.079,34.6689 245.412,32.3356 247.5,30.5 Z"/></g>
<g><path style="opacity:1" fill="#60774d" d="M 235.5,51.5 C 235.414,52.4959 235.748,53.3292 236.5,54C 233.146,57.7153 230.146,61.5487 227.5,65.5C 229.159,60.1734 231.826,55.5067 235.5,51.5 Z"/></g>
<g><path style="opacity:0.725" fill="#646e5e" d="M 223.5,72.5 C 222.921,75.3311 221.588,77.6644 219.5,79.5C 220.079,76.6689 221.412,74.3356 223.5,72.5 Z"/></g>
<g><path style="opacity:0.608" fill="#5b6256" d="M 214.5,88.5 C 214.25,90.674 213.25,92.3406 211.5,93.5C 211.75,91.326 212.75,89.6594 214.5,88.5 Z"/></g>
<g><path style="opacity:0.706" fill="#595f53" d="M 210.5,95.5 C 210.25,97.674 209.25,99.3406 207.5,100.5C 207.75,98.326 208.75,96.6594 210.5,95.5 Z"/></g>
<g><path style="opacity:0.914" fill="#56624c" d="M 206.5,102.5 C 206.25,104.674 205.25,106.341 203.5,107.5C 203.75,105.326 204.75,103.659 206.5,102.5 Z"/></g>
<g><path style="opacity:0.882" fill="#697360" d="M 203.5,107.5 C 203.25,109.674 202.25,111.341 200.5,112.5C 200.75,110.326 201.75,108.659 203.5,107.5 Z"/></g>
<g><path style="opacity:0.494" fill="#7b8d6d" d="M 269.5,98.5 C 268.724,109.042 267.391,119.376 265.5,129.5C 265.291,118.83 266.625,108.497 269.5,98.5 Z"/></g>
<g><path style="opacity:0.89" fill="#576c46" d="M 195.5,121.5 C 195.657,122.873 195.49,124.207 195,125.5C 191.616,131.644 187.782,137.311 183.5,142.5C 186.745,135.004 190.745,128.004 195.5,121.5 Z"/></g>
<g><path style="opacity:0.478" fill="#888f81" d="M 183.5,142.5 C 183.573,144.027 182.906,145.027 181.5,145.5C 181.427,143.973 182.094,142.973 183.5,142.5 Z"/></g>
<g><path style="opacity:0.741" fill="#62675d" d="M 181.5,145.5 C 181.771,147.38 181.104,148.713 179.5,149.5C 179.66,147.847 180.326,146.514 181.5,145.5 Z"/></g>
<g><path style="opacity:0.439" fill="#888f83" d="M 179.5,149.5 C 179.573,151.027 178.906,152.027 177.5,152.5C 177.427,150.973 178.094,149.973 179.5,149.5 Z"/></g>
<g><path style="opacity:1" fill="#5a6a4d" d="M 177.5,152.5 C 176.786,156.933 174.786,160.6 171.5,163.5C 173.25,159.665 175.25,155.999 177.5,152.5 Z"/></g>
<g><path style="opacity:0.647" fill="#595b57" d="M 170.5,165.5 C 170.25,167.674 169.25,169.341 167.5,170.5C 167.75,168.326 168.75,166.659 170.5,165.5 Z"/></g>
<g><path style="opacity:0.576" fill="#555954" d="M 166.5,172.5 C 166.25,174.674 165.25,176.341 163.5,177.5C 163.75,175.326 164.75,173.659 166.5,172.5 Z"/></g>
<g><path style="opacity:0.671" fill="#585c55" d="M 162.5,179.5 C 162.25,181.674 161.25,183.341 159.5,184.5C 159.75,182.326 160.75,180.659 162.5,179.5 Z"/></g>
<g><path style="opacity:0.324" fill="#a5bd94" d="M 259.5,176.5 C 259.384,179.86 259.051,183.193 258.5,186.5C 305.003,186.168 351.336,186.501 397.5,187.5C 350.833,187.5 304.167,187.5 257.5,187.5C 257.251,183.542 257.918,179.876 259.5,176.5 Z"/></g>
<g><path style="opacity:1" fill="#67715e" d="M 397.5,187.5 C 400.732,187.772 402.732,189.438 403.5,192.5C 401.363,190.829 399.363,189.162 397.5,187.5 Z"/></g>
<g><path style="opacity:0.898" fill="#73796d" d="M 155.5,191.5 C 155.573,193.027 154.906,194.027 153.5,194.5C 153.427,192.973 154.094,191.973 155.5,191.5 Z"/></g>
<g><path style="opacity:0.325" fill="#6e7867" d="M 403.5,192.5 C 405.088,194.527 405.588,196.861 405,199.5C 403.074,203.69 400.907,207.69 398.5,211.5C 399.176,207.813 400.676,204.48 403,201.5C 403.498,198.518 403.665,195.518 403.5,192.5 Z"/></g>
<g><path style="opacity:0.835" fill="#637257" d="M 153.5,194.5 C 149.354,205.469 143.687,215.469 136.5,224.5C 141.664,214.167 147.331,204.167 153.5,194.5 Z"/></g>
<g><path style="opacity:0.569" fill="#6e7865" d="M 398.5,211.5 C 396.336,216.5 393.669,221.167 390.5,225.5C 390.491,223.692 390.991,222.025 392,220.5C 393.699,217.079 395.865,214.079 398.5,211.5 Z"/></g>
<g><path style="opacity:1" fill="#546348" d="M 136.5,224.5 C 136.416,227.682 135.083,230.015 132.5,231.5C 133.584,228.996 134.917,226.663 136.5,224.5 Z"/></g>
<g><path style="opacity:0.373" fill="#70726f" d="M 389.5,227.5 C 389.573,229.027 388.906,230.027 387.5,230.5C 387.427,228.973 388.094,227.973 389.5,227.5 Z"/></g>
<g><path style="opacity:0.965" fill="#556a43" d="M 132.5,231.5 C 132.245,234.016 131.411,236.35 130,238.5C 128.301,241.921 126.135,244.921 123.5,247.5C 125.997,241.835 128.997,236.502 132.5,231.5 Z"/></g>
<g><path style="opacity:0.58" fill="#646762" d="M 118.5,256.5 C 118.573,258.027 117.906,259.027 116.5,259.5C 116.427,257.973 117.094,256.973 118.5,256.5 Z"/></g>
<g><path style="opacity:0.682" fill="#6d7469" d="M 114.5,263.5 C 114.573,265.027 113.906,266.027 112.5,266.5C 112.427,264.973 113.094,263.973 114.5,263.5 Z"/></g>
<g><path style="opacity:0.561" fill="#908e8f" d="M 112.5,266.5 C 112.573,268.027 111.906,269.027 110.5,269.5C 110.427,267.973 111.094,266.973 112.5,266.5 Z"/></g>
<g><path style="opacity:0.576" fill="#546149" d="M 365.5,269.5 C 365.25,271.674 364.25,273.341 362.5,274.5C 362.75,272.326 363.75,270.659 365.5,269.5 Z"/></g>
<g><path style="opacity:0.773" fill="#7e8578" d="M 110.5,269.5 C 110.771,271.38 110.104,272.713 108.5,273.5C 108.66,271.847 109.326,270.514 110.5,269.5 Z"/></g>
<g><path style="opacity:1" fill="#6d7863" d="M 108.5,273.5 C 108.408,275.848 107.408,277.514 105.5,278.5C 105.75,276.326 106.75,274.659 108.5,273.5 Z"/></g>
<g><path style="opacity:0.478" fill="#5f6e53" d="M 362.5,275.5 C 361.32,278.54 359.653,281.206 357.5,283.5C 358.195,280.085 359.862,277.418 362.5,275.5 Z"/></g>
<g><path style="opacity:0.51" fill="#9b9c9a" d="M 104.5,280.5 C 104.573,282.027 103.906,283.027 102.5,283.5C 102.427,281.973 103.094,280.973 104.5,280.5 Z"/></g>
<g><path style="opacity:0.518" fill="#7b8672" d="M 102.5,283.5 C 99.3872,289.96 96.7205,296.627 94.5,303.5C 93.441,301.274 93.6077,298.941 95,296.5C 97.3636,291.998 99.8636,287.665 102.5,283.5 Z"/></g>
<g><path style="opacity:0.412" fill="#69785d" d="M 357.5,284.5 C 356.404,287.032 355.071,289.365 353.5,291.5C 353.584,288.318 354.917,285.985 357.5,284.5 Z"/></g>
<g><path style="opacity:0.706" fill="#627156" d="M 353.5,291.5 C 352.416,294.004 351.083,296.337 349.5,298.5C 349.584,295.318 350.917,292.985 353.5,291.5 Z"/></g>
<g><path style="opacity:0.792" fill="#606d54" d="M 348.5,300.5 C 347.89,302.434 346.89,304.101 345.5,305.5C 345.259,302.966 346.259,301.3 348.5,300.5 Z"/></g>
<g><path style="opacity:1" fill="#616b58" d="M 95.5,306.5 C 97.2644,307.326 98.5977,308.659 99.5,310.5C 97.1667,310.167 95.8333,308.833 95.5,306.5 Z"/></g>
<g><path style="opacity:0.984" fill="#5b7049" d="M 344.5,307.5 C 343,311.173 341,314.506 338.5,317.5C 338.997,313.157 340.997,309.824 344.5,307.5 Z"/></g>
<g><path style="opacity:0.329" fill="#595b57" d="M 331.5,330.5 C 331.573,332.027 330.906,333.027 329.5,333.5C 329.427,331.973 330.094,330.973 331.5,330.5 Z"/></g>
<g><path style="opacity:0.282" fill="#6a6e67" d="M 326.5,339.5 C 326.573,341.027 325.906,342.027 324.5,342.5C 324.427,340.973 325.094,339.973 326.5,339.5 Z"/></g>
<g><path style="opacity:0.357" fill="#646a5f" d="M 322.5,346.5 C 322.573,348.027 321.906,349.027 320.5,349.5C 320.427,347.973 321.094,346.973 322.5,346.5 Z"/></g>
<g><path style="opacity:0.569" fill="#637555" d="M 317.5,355.5 C 316.083,358.669 314.417,361.669 312.5,364.5C 312.913,360.662 314.58,357.662 317.5,355.5 Z"/></g>
<g><path style="opacity:0.867" fill="#87937d" d="M 234.5,354.5 C 234.745,360.084 234.078,365.417 232.5,370.5C 232.668,364.966 233.335,359.633 234.5,354.5 Z"/></g>
<g><path style="opacity:0.725" fill="#667757" d="M 312.5,364.5 C 311.416,367.004 310.083,369.337 308.5,371.5C 308.584,368.318 309.917,365.985 312.5,364.5 Z"/></g>
<g><path style="opacity:0.682" fill="#697a5a" d="M 307.5,373.5 C 306.89,375.434 305.89,377.101 304.5,378.5C 304.259,375.966 305.259,374.3 307.5,373.5 Z"/></g>
<g><path style="opacity:0.855" fill="#68775b" d="M 303.5,380.5 C 303.25,382.674 302.25,384.341 300.5,385.5C 300.259,382.966 301.259,381.3 303.5,380.5 Z"/></g>
<g><path style="opacity:0.953" fill="#86947a" d="M 232.5,373.5 C 232.603,380.386 231.936,387.053 230.5,393.5C 230.397,386.614 231.064,379.947 232.5,373.5 Z"/></g>
<g><path style="opacity:0.494" fill="#4b4f48" d="M 291.5,401.5 C 291.25,403.674 290.25,405.341 288.5,406.5C 288.75,404.326 289.75,402.659 291.5,401.5 Z"/></g>
<g><path style="opacity:0.439" fill="#545951" d="M 286.5,410.5 C 286.573,412.027 285.906,413.027 284.5,413.5C 284.427,411.973 285.094,410.973 286.5,410.5 Z"/></g>
<g><path style="opacity:0.318" fill="#646c5f" d="M 281.5,419.5 C 281.573,421.027 280.906,422.027 279.5,422.5C 279.427,420.973 280.094,419.973 281.5,419.5 Z"/></g>
<g><path style="opacity:0.49" fill="#646d5d" d="M 277.5,426.5 C 277.25,428.674 276.25,430.341 274.5,431.5C 274.75,429.326 275.75,427.659 277.5,426.5 Z"/></g>
<g><path style="opacity:0.592" fill="#79886e" d="M 230.5,393.5 C 228.016,425.859 225.016,458.192 221.5,490.5C 220.842,489.207 220.508,487.707 220.5,486C 223.514,454.983 226.848,424.149 230.5,393.5 Z"/></g>
<g><path style="opacity:0.8" fill="#5e724e" d="M 272.5,435.5 C 271.921,438.331 270.588,440.664 268.5,442.5C 268.584,439.318 269.917,436.985 272.5,435.5 Z"/></g>
<g><path style="opacity:0.761" fill="#6d825c" d="M 266.5,446.5 C 265.89,448.434 264.89,450.101 263.5,451.5C 263.259,448.966 264.259,447.3 266.5,446.5 Z"/></g>
<g><path style="opacity:0.651" fill="#4f554a" d="M 246.5,482.5 C 245.974,484.23 244.974,485.564 243.5,486.5C 243.554,484.368 244.554,483.035 246.5,482.5 Z"/></g>
<g><path style="opacity:0.443" fill="#4e5847" d="M 221.5,490.5 C 224.227,495.698 228.56,498.032 234.5,497.5C 227.842,499.669 223.509,497.336 221.5,490.5 Z"/></g>
<g><path style="opacity:0.396" fill="#505a4a" d="M 241.5,490.5 C 241.573,492.027 240.906,493.027 239.5,493.5C 239.427,491.973 240.094,490.973 241.5,490.5 Z"/></g>
</svg>
