<?xml version="1.0" standalone="no"?>
<!DOCTYPE svg PUBLIC "-//W3C//DTD SVG 20010904//EN"
 "http://www.w3.org/TR/2001/REC-SVG-20010904/DTD/svg10.dtd">
<svg version="1.0" xmlns="http://www.w3.org/2000/svg"
 width="261.000000pt" height="261.000000pt" viewBox="0 0 261.000000 261.000000"
 preserveAspectRatio="xMidYMid meet">

<g transform="translate(0.000000,261.000000) scale(0.100000,-0.100000)"
fill="#000000" stroke="none">
<path d="M1075 2440 c-31 -12 -41 -28 -85 -136 -23 -54 -50 -118 -61 -141 -10
-24 -19 -49 -19 -57 0 -10 -14 -17 -37 -21 -95 -16 -251 -58 -318 -84 -216
-87 -282 -203 -172 -307 53 -51 113 -88 128 -78 7 4 9 3 6 -3 -12 -20 256 -96
416 -118 200 -28 536 -28 744 0 85 12 247 49 328 76 213 71 313 177 261 277
-16 30 -67 80 -109 106 -53 33 -202 84 -322 111 -66 15 -122 28 -125 30 -4 2
-12 22 -20 44 -7 22 -16 39 -19 36 -4 -2 -7 4 -8 14 -2 23 -80 210 -95 229
-38 45 -93 32 -169 -40 -25 -24 -58 -49 -72 -57 -24 -13 -29 -12 -47 4 -11 10
-20 16 -20 13 0 -2 -21 16 -47 40 -39 36 -101 75 -115 71 -2 0 -12 -4 -23 -9z"/>
<path d="M540 1377 c-32 -16 -52 -55 -45 -87 4 -14 64 -83 137 -156 l130 -131
-48 -7 c-27 -4 -65 -10 -84 -12 -84 -12 -245 -78 -280 -116 -27 -29 -26 -79 3
-105 12 -11 54 -30 92 -43 109 -36 266 -109 407 -192 127 -73 282 -203 380
-315 31 -36 43 -43 73 -43 30 0 42 7 73 43 81 93 156 159 333 290 65 48 339
179 454 217 39 13 80 32 93 43 28 26 29 76 1 106 -34 37 -192 102 -279 114
-19 3 -57 9 -84 13 l-48 7 133 133 c119 119 133 137 133 168 0 19 -6 42 -14
51 -35 42 -49 39 -328 -55 -147 -50 -273 -97 -280 -104 -12 -11 -31 -70 -58
-176 -2 -8 -8 -31 -13 -50 -5 -19 -32 -118 -60 -219 -27 -101 -52 -185 -55
-188 -2 -3 -9 12 -15 33 -6 22 -29 107 -51 189 -66 240 -61 221 -85 315 -9 36
-23 74 -30 86 -10 15 -81 44 -267 107 -312 105 -288 99 -318 84z"/>
</g>
</svg>