<?xml version="1.0" standalone="no"?>
<!DOCTYPE svg PUBLIC "-//W3C//DTD SVG 20010904//EN"
<svg version="1.0" xmlns="http://www.w3.org/2000/svg"
 width="2000.000000pt" height="2000.000000pt" viewBox="0 0 2000.000000 2000.000000"
 preserveAspectRatio="xMidYMid meet">
<metadata>
Created by potrace 1.16, written by Peter Selinger 2001-2019
</metadata>
<g transform="translate(0.000000,2000.000000) scale(0.100000,-0.100000)"
fill="#000000" stroke="none">
<path d="M4380 14600 c0 -17 -7 -20 -40 -20 -33 0 -40 -4 -40 -19 0 -10 -9
-21 -20 -24 -17 -4 -20 -14 -20 -59 0 -43 -4 -56 -20 -66 l-21 -12 4 -3328 c1
-2121 6 -3337 12 -3354 7 -18 11 1127 12 3290 1 2233 5 3332 11 3362 35 151
39 158 114 196 l47 24 4907 0 4907 0 28 -32 c29 -34 45 -69 73 -153 14 -44 16
-133 16 -796 l0 -747 35 -31 c20 -17 43 -31 51 -31 23 0 133 -109 156 -153 11
-22 36 -58 57 -80 81 -91 230 -345 231 -394 1 -10 9 -36 20 -58 11 -22 19 -52
20 -66 0 -14 7 -34 15 -45 8 -10 15 -29 15 -42 0 -13 9 -44 19 -70 11 -26 22
-70 25 -99 3 -29 13 -64 23 -80 17 -25 18 -74 20 -783 1 -415 2 -758 3 -761 0
-3 59 -9 130 -11 72 -3 136 -10 143 -16 6 -6 30 -13 52 -17 68 -13 147 -60
228 -137 96 -93 127 -134 127 -171 0 -16 9 -44 20 -63 21 -32 21 -39 18 -1283
-2 -984 -6 -1253 -15 -1263 -7 -6 -13 -30 -13 -53 0 -68 -44 -256 -75 -322 -8
-17 -15 -39 -15 -50 0 -10 -7 -31 -15 -46 -8 -16 -20 -47 -26 -70 -15 -60
-211 -448 -253 -503 -20 -26 -36 -52 -36 -58 -1 -6 -19 -29 -41 -51 -22 -22
-52 -60 -66 -85 -31 -53 -368 -397 -398 -406 -22 -7 -115 -80 -128 -101 -4 -7
-13 -13 -19 -13 -11 0 -87 -47 -98 -61 -13 -17 -430 -217 -464 -223 -21 -4
-48 -14 -60 -21 -12 -7 -48 -17 -81 -21 -33 -4 -69 -13 -80 -19 -11 -7 -39
-16 -62 -20 -24 -4 -45 -10 -48 -15 -3 -5 -38 -14 -77 -20 -40 -7 -82 -19 -93
-26 -13 -9 -75 -16 -185 -20 -134 -6 -167 -10 -176 -23 -10 -13 -34 -16 -139
-16 -109 0 -128 2 -139 18 -11 14 -31 17 -132 18 -206 1 -321 23 -569 109 -66
22 -140 48 -165 55 -64 20 -428 202 -470 235 -19 15 -50 35 -69 45 -19 9 -44
26 -55 37 -12 11 -37 28 -57 38 -19 10 -57 38 -85 63 -27 24 -62 51 -79 60
-42 22 -250 228 -271 269 -9 18 -33 51 -53 73 -48 52 -133 179 -172 257 -17
34 -44 78 -60 98 -28 35 -119 218 -119 240 0 14 -33 91 -60 142 -11 20 -20 48
-20 62 0 15 -4 26 -9 26 -5 0 -9 12 -9 28 0 15 -10 65 -22 112 -51 200 -62
318 -67 748 l-5 402 -2637 2 c-1450 1 -2665 2 -2701 2 l-65 1 -7 50 c-9 69 -9
228 0 241 5 9 687 12 2709 10 l2703 -1 0 228 0 227 -2612 1 c-1437 1 -2656 2
-2708 3 l-95 1 -3 139 c-1 77 1 143 6 148 4 4 1224 8 2710 8 l2701 0 3 231 c2
127 0 233 -3 235 -4 2 -1222 4 -2706 4 l-2700 0 -7 108 c-4 60 -4 127 0 150
l7 42 2759 0 2759 0 49 52 c58 64 133 111 231 145 58 20 98 26 193 29 66 3
121 6 123 7 4 5 5 979 0 983 -2 2 -1377 5 -3055 6 -2354 2 -3054 6 -3060 15
-9 15 -9 264 0 279 5 7 914 11 3065 13 l3058 2 7 102 c6 88 33 250 54 325 l6
22 -3038 2 c-1672 0 -3064 1 -3094 2 -44 1 -56 4 -60 19 -7 25 -6 264 1 271 3
3 1423 6 3155 6 l3149 1 44 89 c54 111 175 294 251 380 82 93 285 274 372 332
158 106 377 210 563 267 180 55 264 65 535 65 259 1 328 -6 505 -51 229 -57
534 -205 682 -330 l64 -54 -3 753 -3 753 -24 47 c-13 26 -39 62 -58 80 l-34
33 -4877 0 c-5241 0 -4923 3 -4980 -49 -32 -28 -41 -48 -54 -109 -8 -37 -13
-1091 -17 -3588 -4 -2559 -9 -3540 -17 -3550 -16 -21 -23 -54 -30 -145 -6 -75
-5 -83 15 -100 17 -15 21 -30 21 -76 0 -51 2 -58 19 -58 16 0 20 -8 23 -37 3
-36 5 -38 39 -41 27 -2 38 -9 42 -23 5 -19 42 -19 3061 -19 2964 0 3056 -1
3056 -18 0 -11 9 -27 20 -37 14 -12 20 -31 20 -57 0 -31 4 -41 20 -45 17 -4
20 -14 20 -54 0 -38 4 -52 20 -61 14 -9 20 -24 20 -50 0 -31 4 -38 20 -38 16
0 20 -7 20 -36 0 -27 5 -37 20 -41 11 -3 20 -14 20 -24 0 -12 7 -19 20 -19 17
0 20 -7 20 -40 0 -33 3 -40 20 -40 16 0 20 -7 20 -36 0 -27 5 -37 20 -41 11
-3 20 -14 20 -24 0 -12 7 -19 20 -19 16 0 20 -7 20 -36 0 -27 5 -37 20 -41 11
-3 20 -14 20 -24 0 -12 7 -19 20 -19 13 0 20 -7 20 -20 0 -13 7 -20 20 -20 13
0 20 -7 20 -19 0 -10 7 -22 15 -25 9 -3 21 -19 26 -36 6 -16 15 -30 20 -30 5
0 14 -11 19 -25 5 -14 16 -25 25 -25 8 0 15 -7 15 -16 0 -9 9 -18 20 -21 11
-3 20 -12 20 -19 0 -8 8 -18 18 -21 9 -4 23 -15 30 -25 7 -10 20 -18 28 -18 8
0 14 -7 14 -15 0 -8 14 -17 35 -21 25 -4 35 -11 35 -25 0 -12 7 -19 20 -19 13
0 20 -7 20 -20 0 -13 7 -20 19 -20 10 0 21 -9 24 -20 4 -15 14 -20 41 -20 29
0 36 -4 36 -20 0 -13 7 -20 20 -20 13 0 20 -7 20 -20 0 -17 7 -20 40 -20 33 0
40 -3 40 -20 0 -13 7 -20 20 -20 13 0 20 -7 20 -20 0 -17 7 -20 40 -20 33 0
40 -3 40 -20 0 -17 7 -20 40 -20 33 0 40 -3 40 -20 0 -17 7 -20 40 -20 33 0
40 -3 40 -20 0 -17 7 -20 40 -20 33 0 40 -3 40 -20 0 -17 7 -20 39 -20 30 0
40 -4 44 -20 4 -17 14 -20 61 -20 49 0 56 -2 56 -20 0 -18 7 -20 59 -20 50 0
59 -3 64 -20 4 -17 14 -20 60 -20 46 0 55 -3 60 -20 5 -18 14 -20 85 -20 66 0
82 -3 97 -20 17 -19 31 -20 194 -20 164 0 178 -1 194 -20 15 -18 29 -20 134
-20 130 0 163 6 163 26 0 11 34 14 181 14 172 0 181 1 186 20 5 18 14 20 84
20 72 0 79 2 79 20 0 18 7 20 60 20 53 0 60 2 60 20 0 18 7 20 76 20 67 0 76
2 81 20 4 16 14 20 49 20 32 0 49 6 61 20 11 13 30 20 51 20 25 0 35 5 39 20
4 15 14 20 40 20 26 0 36 5 40 20 4 16 14 20 44 20 32 0 39 3 39 20 0 16 7 20
36 20 27 0 37 5 41 20 3 11 13 20 22 20 9 0 22 9 29 20 8 13 23 20 42 20 23 0
30 4 30 20 0 15 7 20 25 20 14 0 33 9 42 20 10 11 25 20 35 20 11 0 18 8 18
20 0 13 7 20 20 20 13 0 20 7 20 20 0 13 7 20 20 20 11 0 29 9 40 20 11 11 27
20 36 20 9 0 18 9 21 19 3 11 13 21 24 24 10 3 19 12 19 21 0 9 8 16 20 16 13
0 20 7 20 20 0 13 7 20 20 20 13 0 20 7 20 20 0 13 7 20 20 20 13 0 20 7 20
20 0 13 7 20 20 20 13 0 20 7 20 20 0 13 7 20 20 20 13 0 20 7 20 20 0 13 7
20 20 20 13 0 20 7 20 20 0 11 9 29 20 40 11 11 20 29 20 40 0 13 7 20 20 20
13 0 20 7 20 20 0 13 7 20 20 20 13 0 20 7 20 19 0 10 9 21 20 24 15 4 20 14
20 41 0 29 4 36 20 36 13 0 20 7 20 19 0 10 9 21 20 24 15 4 20 14 20 41 0 29
4 36 20 36 17 0 20 7 20 40 0 33 3 40 20 40 17 0 20 7 20 40 0 33 3 40 20 40
17 0 20 7 20 40 0 33 3 40 20 40 17 0 20 7 20 40 0 33 3 40 20 40 18 0 20 7
20 60 0 53 2 60 20 60 18 0 20 7 20 60 0 53 2 60 20 60 18 0 20 7 20 60 0 47
4 64 20 80 17 17 20 33 20 118 0 86 2 99 20 110 20 12 20 23 20 1298 0 1277 0
1286 -20 1291 -17 4 -20 14 -20 54 0 38 -4 52 -20 61 -11 7 -20 21 -20 30 0
11 -8 18 -20 18 -13 0 -20 7 -20 20 0 13 -7 20 -20 20 -13 0 -20 7 -20 20 0
13 -7 20 -20 20 -13 0 -20 7 -20 20 0 13 -7 20 -19 20 -10 0 -21 9 -24 20 -4
15 -14 20 -41 20 -29 0 -36 4 -36 20 0 18 -7 20 -60 20 -53 0 -60 2 -60 20 0
19 -7 20 -140 20 l-140 0 0 760 c0 747 0 760 -20 780 -16 16 -20 33 -20 96 0
67 -2 76 -20 81 -17 5 -20 14 -20 60 0 46 -3 56 -20 60 -17 5 -20 14 -20 60 0
46 -3 56 -20 60 -15 4 -20 14 -20 43 0 24 -7 43 -20 55 -14 13 -20 31 -20 62
0 36 -3 43 -20 43 -16 0 -20 7 -20 36 0 27 -5 37 -20 41 -11 3 -20 14 -20 24
0 12 -7 19 -20 19 -16 0 -20 7 -20 36 0 27 -5 37 -20 41 -11 3 -20 12 -20 20
0 8 -9 17 -20 20 -11 3 -20 14 -20 24 0 12 -7 19 -20 19 -16 0 -20 7 -20 35 0
25 -5 38 -17 42 -19 7 -24 11 -96 78 -26 25 -57 45 -67 45 -13 0 -20 7 -20 20
0 13 -7 20 -20 20 -20 0 -20 7 -20 776 0 767 0 776 -20 781 -17 5 -20 14 -20
64 0 51 -3 59 -19 59 -10 0 -21 9 -24 20 -3 11 -14 20 -25 20 -10 0 -27 9 -37
20 -18 20 -31 20 -4937 20 -4911 0 -4918 0 -4918 -20z m2131 -1505 c11 -4 14
-36 14 -148 l0 -142 -757 0 c-416 0 -759 3 -762 6 -9 9 -15 166 -9 231 l6 57
747 1 c411 0 754 -2 761 -5z m2502 -2555 l2 -145 -2007 -3 c-1105 -1 -2008 -1
-2009 0 -5 14 -9 258 -4 276 l5 22 2005 -2 2005 -3 3 -145z m-4243 -3710 c201
-3 1568 -6 3038 -7 1470 0 2676 -3 2679 -7 4 -3 -1363 -5 -3038 -4 l-3044 3
-42 23 c-24 12 -43 27 -43 32 0 5 19 0 43 -13 41 -21 54 -22 407 -27z"/>
<path d="M12856 12759 c-273 -40 -537 -181 -758 -406 -155 -158 -239 -295
-308 -502 -34 -103 -89 -375 -77 -387 2 -2 293 -4 647 -4 354 0 654 -3 666 -6
21 -5 21 -10 23 -148 l2 -143 -33 -7 c-18 -4 -320 -6 -671 -5 -350 1 -640 0
-643 -3 -10 -10 -7 -969 3 -979 5 -5 521 -9 1303 -9 l1295 0 6 47 c3 27 7 425
8 885 1 461 6 850 10 865 24 86 -280 457 -484 592 -161 107 -328 175 -504 205
-103 17 -380 20 -485 5z"/>
<path d="M14350 11067 l5 -902 35 -3 c21 -2 38 2 45 10 5 8 18 17 28 21 19 7
20 74 17 882 -1 335 -4 388 -20 410 -4 6 -11 53 -15 105 -7 94 -10 114 -39
242 -14 64 -38 122 -53 131 -5 3 -6 -401 -3 -896z m70 547 c0 -112 2 -126 20
-141 20 -17 20 -30 20 -630 l0 -612 -25 -26 c-14 -14 -35 -25 -46 -25 -23 0
-36 27 -20 43 8 8 11 218 11 768 0 752 0 757 20 752 19 -5 20 -14 20 -129z"/>
<path d="M12301 8096 c2 -58 1 -107 -2 -110 -3 -3 -43 14 -89 39 -46 25 -87
45 -91 45 -9 0 -63 -149 -56 -156 3 -3 20 -10 39 -14 74 -19 153 -42 157 -46
2 -2 -21 -30 -51 -61 -88 -93 -92 -112 -35 -156 69 -52 86 -44 148 71 19 35
40 62 49 62 10 0 29 -27 50 -70 44 -91 61 -107 96 -91 39 17 94 62 94 75 0 7
-30 47 -66 90 -65 76 -70 88 -36 92 106 15 173 28 178 35 7 12 -28 159 -38
159 -15 0 -191 -70 -205 -82 -7 -6 -13 -7 -14 -2 -3 22 2 153 7 187 l6 37 -72
0 -72 0 3 -104z"/>
<path d="M13019 8196 c-2 -2 -2 -49 1 -103 4 -54 4 -101 0 -105 -3 -3 -45 13
-95 38 -49 24 -95 44 -101 44 -17 0 -64 -148 -50 -158 6 -4 55 -18 109 -31 53
-13 97 -24 97 -26 0 -2 -34 -38 -75 -79 -48 -48 -73 -80 -69 -90 8 -22 94 -86
115 -86 12 0 36 29 70 85 68 112 72 111 129 -17 34 -77 42 -80 106 -43 64 37
72 58 40 104 -14 20 -42 52 -61 71 -19 19 -35 40 -35 47 0 6 17 15 38 19 67
12 154 33 160 38 5 6 -38 156 -45 156 -2 0 -20 -7 -41 -16 -20 -8 -66 -26
-101 -40 l-64 -24 5 110 4 110 -66 0 c-37 0 -69 -2 -71 -4z"/>
<path d="M13727 8083 l6 -117 -31 22 c-49 36 -163 85 -171 76 -8 -9 -51 -131
-51 -146 0 -4 19 -12 43 -18 87 -21 157 -43 157 -49 -1 -3 -30 -37 -65 -76
-36 -38 -65 -76 -65 -84 0 -18 81 -90 102 -91 11 0 40 34 78 91 34 49 66 89
71 87 6 -2 29 -42 53 -88 24 -48 50 -86 60 -88 19 -4 116 64 116 82 0 6 -27
45 -60 86 -33 41 -60 78 -60 82 0 7 77 25 148 35 23 3 45 10 48 15 3 4 -1 30
-9 56 -9 26 -18 60 -22 76 -7 33 -4 33 -125 -18 -46 -20 -86 -36 -88 -36 -2 0
0 50 3 110 l8 110 -76 0 -75 0 5 -117z"/>
</g>
</svg>
